<svg width="18" height="18" viewBox="0 0 18 18" fill="none" xmlns="http://www.w3.org/2000/svg">
<path fill-rule="evenodd" clip-rule="evenodd" d="M17 9C17 13.4183 13.4183 17 9 17C4.58172 17 1 13.4183 1 9C1 4.58172 4.58172 1 9 1C13.4183 1 17 4.58172 17 9ZM7.00871 12.0929C7.39634 12.4458 7.99069 12.4395 8.37071 12.0784L13.5592 7.14851C13.9039 6.82093 13.911 6.27364 13.5749 5.9372C13.2501 5.61208 12.7251 5.60573 12.3925 5.92291L7.69646 10.4013L5.77897 8.77999C5.44905 8.50104 4.9584 8.5296 4.66308 8.84494C4.35376 9.17522 4.37446 9.69472 4.70907 9.99934L7.00871 12.0929Z" fill="#27CA27"/>
</svg>
