<svg width="49" height="48" viewBox="0 0 49 48" fill="none" xmlns="http://www.w3.org/2000/svg">
<path d="M31.8618 22C33.5187 22 34.8618 20.6569 34.8618 19C34.8618 17.3431 33.5187 16 31.8618 16C30.205 16 28.8618 17.3431 28.8618 19C28.8618 20.6569 30.205 22 31.8618 22Z" fill="black" fill-opacity="0.38"/>
<path d="M17.8618 22C19.5187 22 20.8618 20.6569 20.8618 19C20.8618 17.3431 19.5187 16 17.8618 16C16.205 16 14.8618 17.3431 14.8618 19C14.8618 20.6569 16.205 22 17.8618 22Z" fill="black" fill-opacity="0.38"/>
<path d="M24.8618 28C20.2018 28 16.2218 30.9 14.6218 35H17.9618C19.3418 32.62 21.9018 31 24.8618 31C27.8218 31 30.3618 32.62 31.7618 35H35.1018C33.5018 30.9 29.5218 28 24.8618 28ZM24.8418 4C13.8018 4 4.86182 12.96 4.86182 24C4.86182 35.04 13.8018 44 24.8418 44C35.9018 44 44.8618 35.04 44.8618 24C44.8618 12.96 35.9018 4 24.8418 4ZM24.8618 40C16.0218 40 8.86182 32.84 8.86182 24C8.86182 15.16 16.0218 8 24.8618 8C33.7018 8 40.8618 15.16 40.8618 24C40.8618 32.84 33.7018 40 24.8618 40Z" fill="black" fill-opacity="0.38"/>
</svg>
