<svg width="18" height="19" viewBox="0 0 18 19" fill="none" xmlns="http://www.w3.org/2000/svg">
<path d="M14.1191 8.93176C13.9683 8.93176 13.8236 8.99168 13.717 9.09835C13.6103 9.20501 13.5504 9.34967 13.5504 9.50051V14.0505H4.45039V4.95051H9.00039C9.15123 4.95051 9.2959 4.89059 9.40256 4.78393C9.50922 4.67727 9.56914 4.5326 9.56914 4.38176C9.56914 4.23092 9.50922 4.08626 9.40256 3.9796C9.2959 3.87293 9.15123 3.81301 9.00039 3.81301H3.88164C3.7308 3.81301 3.58613 3.87293 3.47947 3.9796C3.37281 4.08626 3.31289 4.23092 3.31289 4.38176V14.6193C3.31289 14.7701 3.37281 14.9148 3.47947 15.0214C3.58613 15.1281 3.7308 15.188 3.88164 15.188H14.1191C14.27 15.188 14.4146 15.1281 14.5213 15.0214C14.628 14.9148 14.6879 14.7701 14.6879 14.6193V9.50051C14.6879 9.34967 14.628 9.20501 14.5213 9.09835C14.4146 8.99168 14.27 8.93176 14.1191 8.93176Z" fill="#1C0056"/>
<path d="M14.3231 3.85846C14.2516 3.82882 14.175 3.81338 14.0976 3.81301H11.1464C10.9898 3.81301 10.8397 3.8752 10.729 3.98589C10.6183 4.09659 10.5561 4.24672 10.5561 4.40326C10.5561 4.55981 10.6183 4.70994 10.729 4.82063C10.8397 4.93133 10.9898 4.99351 11.1464 4.99351H12.6728L8.36809 9.2982C8.31171 9.35265 8.26675 9.41778 8.23581 9.4898C8.20488 9.56181 8.18859 9.63926 8.18791 9.71763C8.18723 9.79601 8.20217 9.87373 8.23185 9.94627C8.26152 10.0188 8.30535 10.0847 8.36077 10.1401C8.41619 10.1956 8.48209 10.2394 8.55463 10.2691C8.62717 10.2987 8.7049 10.3137 8.78327 10.313C8.86164 10.3123 8.9391 10.296 9.01111 10.2651C9.08312 10.2342 9.14825 10.1892 9.2027 10.1328L13.5074 5.82812V7.35451C13.5074 7.51105 13.5696 7.66119 13.6803 7.77188C13.791 7.88257 13.9411 7.94476 14.0976 7.94476C14.2542 7.94476 14.4043 7.88257 14.515 7.77188C14.6257 7.66119 14.6879 7.51105 14.6879 7.35451V4.40326C14.6878 4.28656 14.653 4.17253 14.5881 4.07556C14.5232 3.97859 14.431 3.90304 14.3231 3.85846Z" fill="#1C0056"/>
<path fill-rule="evenodd" clip-rule="evenodd" d="M14.6879 4.40326V7.35451C14.6879 7.51105 14.6257 7.66119 14.515 7.77188C14.4043 7.88257 14.2542 7.94476 14.0976 7.94476C13.9411 7.94476 13.791 7.88257 13.6803 7.77188C13.5696 7.66119 13.5074 7.51105 13.5074 7.35451V5.82812L9.2027 10.1328C9.14825 10.1892 9.08312 10.2342 9.01111 10.2651C8.9391 10.296 8.86164 10.3123 8.78327 10.313C8.7049 10.3137 8.62717 10.2987 8.55463 10.2691C8.48209 10.2394 8.41619 10.1956 8.36077 10.1401C8.30535 10.0847 8.26152 10.0188 8.23185 9.94627C8.20217 9.87373 8.18723 9.79601 8.18791 9.71763C8.18859 9.63926 8.20488 9.56181 8.23581 9.4898C8.26675 9.41778 8.31171 9.35265 8.36809 9.2982L12.6728 4.99351H11.1464C10.9898 4.99351 10.8397 4.93133 10.729 4.82063C10.6183 4.70994 10.5561 4.55981 10.5561 4.40326C10.5561 4.24672 10.6183 4.09659 10.729 3.98589C10.8397 3.8752 10.9898 3.81301 11.1464 3.81301H14.0976C14.175 3.81338 14.2516 3.82882 14.3231 3.85846C14.431 3.90304 14.5232 3.97859 14.5881 4.07556C14.653 4.17253 14.6878 4.28656 14.6879 4.40326ZM14.3854 3.70835C14.5228 3.76521 14.6404 3.86153 14.7231 3.98515C14.8059 4.10881 14.8502 4.25425 14.8504 4.40307V7.35451C14.8504 7.55415 14.7711 7.74562 14.6299 7.88679C14.4887 8.02795 14.2973 8.10726 14.0976 8.10726C13.898 8.10726 13.7065 8.02795 13.5654 7.88679C13.4242 7.74562 13.3449 7.55415 13.3449 7.35451V6.22043L9.31854 10.2468C9.24931 10.3182 9.16662 10.3751 9.07525 10.4144C8.98341 10.4538 8.88463 10.4746 8.78468 10.4755C8.68473 10.4764 8.58561 10.4573 8.4931 10.4195C8.40059 10.3816 8.31654 10.3257 8.24587 10.255C8.17519 10.1844 8.1193 10.1003 8.08145 10.0078C8.0436 9.91529 8.02455 9.81617 8.02542 9.71622C8.02629 9.61627 8.04705 9.5175 8.0865 9.42566C8.12576 9.33428 8.18273 9.25159 8.25412 9.18237L12.2805 5.15601H11.1464C10.9468 5.15601 10.7553 5.0767 10.6141 4.93554C10.473 4.79437 10.3936 4.6029 10.3936 4.40326C10.3936 4.20362 10.473 4.01216 10.6141 3.87099C10.7553 3.72982 10.9468 3.65051 11.1464 3.65051H14.0976C14.1961 3.65098 14.2944 3.67063 14.3854 3.70835ZM13.6021 8.98344C13.7392 8.8463 13.9252 8.76926 14.1191 8.76926C14.3131 8.76926 14.4991 8.8463 14.6362 8.98344C14.7733 9.12058 14.8504 9.30657 14.8504 9.50051V14.6193C14.8504 14.8132 14.7733 14.9992 14.6362 15.1363C14.4991 15.2735 14.3131 15.3505 14.1191 15.3505H3.88164C3.6877 15.3505 3.5017 15.2735 3.36457 15.1363C3.22743 14.9992 3.15039 14.8132 3.15039 14.6193V4.38176C3.15039 4.18782 3.22743 4.00183 3.36457 3.86469C3.5017 3.72755 3.6877 3.65051 3.88164 3.65051H9.00039C9.19433 3.65051 9.38033 3.72755 9.51746 3.86469C9.6546 4.00183 9.73164 4.18782 9.73164 4.38176C9.73164 4.5757 9.6546 4.7617 9.51746 4.89883C9.38033 5.03597 9.19433 5.11301 9.00039 5.11301H4.61289V13.888H13.3879V9.50051C13.3879 9.30657 13.4649 9.12058 13.6021 8.98344ZM13.717 9.09835C13.8236 8.99168 13.9683 8.93176 14.1191 8.93176C14.27 8.93176 14.4146 8.99168 14.5213 9.09835C14.628 9.20501 14.6879 9.34967 14.6879 9.50051V14.6193C14.6879 14.7701 14.628 14.9148 14.5213 15.0214C14.4146 15.1281 14.27 15.188 14.1191 15.188H3.88164C3.7308 15.188 3.58613 15.1281 3.47947 15.0214C3.37281 14.9148 3.31289 14.7701 3.31289 14.6193V4.38176C3.31289 4.23092 3.37281 4.08626 3.47947 3.9796C3.58613 3.87293 3.7308 3.81301 3.88164 3.81301H9.00039C9.15123 3.81301 9.2959 3.87293 9.40256 3.9796C9.50922 4.08626 9.56914 4.23092 9.56914 4.38176C9.56914 4.5326 9.50922 4.67727 9.40256 4.78393C9.2959 4.89059 9.15123 4.95051 9.00039 4.95051H4.45039V14.0505H13.5504V9.50051C13.5504 9.34967 13.6103 9.20501 13.717 9.09835Z" fill="#1C0056"/>
</svg>
