<svg width="15" height="15" viewBox="0 0 15 15" fill="none" xmlns="http://www.w3.org/2000/svg">
<path fill-rule="evenodd" clip-rule="evenodd" d="M4.65372 2.37778C4.52007 2.37778 4.38643 2.43294 4.28376 2.54008C4.18026 2.64808 4.11784 2.79984 4.11784 2.96317V11.268L7.14029 9.01519C7.35406 8.85587 7.64708 8.85587 7.86085 9.01519L10.8833 11.268V2.96317C10.8833 2.79984 10.8209 2.64808 10.7174 2.54008C10.6147 2.43294 10.4811 2.37778 10.3474 2.37778H4.65372ZM3.41324 1.70583C3.73769 1.36728 4.18333 1.17206 4.65372 1.17206H10.3474C10.8178 1.17206 11.2635 1.36728 11.5879 1.70583C11.9115 2.0435 12.089 2.49622 12.089 2.96317V12.4692C12.089 12.6972 11.9604 12.9057 11.7566 13.008C11.5528 13.1103 11.3087 13.0888 11.1259 12.9526L7.50057 10.2505L3.87525 12.9526C3.69242 13.0888 3.44836 13.1103 3.24456 13.008C3.04076 12.9057 2.91211 12.6972 2.91211 12.4692V2.96317C2.91211 2.49622 3.08964 2.0435 3.41324 1.70583Z" fill="black" stroke="black" stroke-width="0.2" stroke-linecap="round" stroke-linejoin="round"/>
</svg>
