<svg width="19" height="19" viewBox="0 0 19 19" fill="none" xmlns="http://www.w3.org/2000/svg">
<path d="M9.50711 16.6852C9.22142 16.6852 8.96429 16.5953 8.73574 16.4155C6.39305 14.6024 4.75031 11.9801 4.12179 9.01322C4.12179 8.99823 4.1075 8.96826 4.1075 8.95328C4.03608 8.56369 3.99323 8.17409 3.99323 7.7845C4.00751 4.59284 6.47876 2.00055 9.50711 2.00055C12.5355 2.00055 15.0067 4.59284 15.0067 7.76952C15.0067 8.18908 14.9639 8.60864 14.8781 9.01322C14.8781 9.0282 14.8781 9.05817 14.8639 9.07315C14.2353 11.9801 12.6355 14.5574 10.3642 16.3555L10.1928 16.4904C10.1785 16.5054 10.1642 16.5054 10.1499 16.5204C9.94993 16.6253 9.73566 16.6852 9.50711 16.6852ZM4.93601 8.87836C5.53597 11.6205 7.05015 14.048 9.22142 15.7262C9.36426 15.8461 9.56425 15.8611 9.72138 15.7711L9.86423 15.6663C11.9784 14.003 13.464 11.6205 14.0496 8.95328C14.0496 8.9383 14.0496 8.90832 14.0639 8.89334C14.1496 8.53372 14.1782 8.15911 14.1782 7.7845C14.1925 5.07234 12.0926 2.86964 9.50711 2.86964C6.92158 2.86964 4.83602 5.07234 4.83602 7.76952C4.83602 8.12914 4.87887 8.47378 4.93601 8.81842C4.93601 8.8334 4.93601 8.86337 4.93601 8.87836Z" fill="black"/>
<path d="M9.5071 10.2419C8.2072 10.2419 7.15013 9.13304 7.15013 7.76947C7.15013 6.40589 8.2072 5.29705 9.5071 5.29705C10.807 5.29705 11.8641 6.40589 11.8641 7.76947C11.8641 9.13304 10.807 10.2419 9.5071 10.2419ZM9.5071 6.16614C8.66431 6.16614 7.97864 6.88539 7.97864 7.76947C7.97864 8.65354 8.66431 9.37279 9.5071 9.37279C10.3499 9.37279 11.0356 8.65354 11.0356 7.76947C11.0356 6.88539 10.3499 6.16614 9.5071 6.16614Z" fill="black"/>
<path fill-rule="evenodd" clip-rule="evenodd" d="M10.1499 16.5204C9.94993 16.6253 9.73566 16.6852 9.50711 16.6852C9.22142 16.6852 8.96429 16.5953 8.73574 16.4155C6.39305 14.6024 4.75031 11.9801 4.12179 9.01322C4.12179 9.00572 4.11822 8.99448 4.11464 8.98325C4.11107 8.97201 4.1075 8.96077 4.1075 8.95328C4.03608 8.56369 3.99323 8.17409 3.99323 7.7845C4.00751 4.59284 6.47876 2.00055 9.50711 2.00055C12.5355 2.00055 15.0067 4.59284 15.0067 7.76952C15.0067 8.18908 14.9639 8.60864 14.8781 9.01322C14.8781 9.0282 14.8781 9.05817 14.8639 9.07315C14.2353 11.9801 12.6355 14.5574 10.3642 16.3555L10.1928 16.4904C10.1856 16.4979 10.1785 16.5016 10.1713 16.5054C10.1642 16.5091 10.1571 16.5129 10.1499 16.5204ZM10.393 16.7244C10.3784 16.7372 10.3641 16.7478 10.3508 16.7566C10.3499 16.7572 10.3491 16.7577 10.3482 16.7582L10.3377 16.7693L10.2928 16.7928C10.0545 16.9178 9.79157 16.9929 9.50711 16.9929C9.15149 16.9929 8.82797 16.8792 8.54645 16.658C6.14579 14.7997 4.46411 12.1137 3.82079 9.07698L3.81916 9.0693C3.81721 9.06303 3.81444 9.05382 3.81196 9.04428C3.8099 9.03635 3.80716 9.02495 3.80485 9.01143C3.80411 9.00714 3.80331 9.002 3.80256 8.99612C3.72992 8.59654 3.68555 8.19223 3.68555 7.7845C3.70052 4.43878 6.29444 1.69287 9.50711 1.69287C12.7191 1.69287 15.3144 4.43694 15.3144 7.76952C15.3144 8.20059 15.2713 8.63231 15.1848 9.0502C15.184 9.06238 15.1826 9.0766 15.1802 9.09146C15.1776 9.10779 15.1718 9.14045 15.1557 9.17896C14.5063 12.1376 12.8727 14.762 10.5552 16.5968L10.393 16.7244ZM9.4192 15.4905C9.45857 15.5235 9.5126 15.53 9.55757 15.5097L9.67798 15.4213C11.726 13.8086 13.1688 11.5004 13.7432 8.91425C13.744 8.90253 13.7453 8.88907 13.7476 8.87503C13.7502 8.8583 13.7563 8.82441 13.7733 8.78466C13.845 8.46704 13.8705 8.13092 13.8705 7.7845V7.78288C13.884 5.22815 11.9092 3.17732 9.50711 3.17732C7.1058 3.17732 5.1437 5.22761 5.1437 7.76952C5.1437 8.10505 5.18366 8.43098 5.23955 8.7681L5.24369 8.79309V8.84488C5.83349 11.5054 7.3058 13.8567 9.40958 15.4828L9.4192 15.4905ZM4.93601 8.87836C5.53597 11.6205 7.05015 14.048 9.22142 15.7262C9.36426 15.8461 9.56425 15.8611 9.72138 15.7711L9.86423 15.6663C11.9784 14.003 13.464 11.6205 14.0496 8.95328C14.0496 8.9383 14.0496 8.90832 14.0639 8.89334C14.1496 8.53372 14.1782 8.15911 14.1782 7.7845C14.1925 5.07234 12.0926 2.86964 9.50711 2.86964C6.92158 2.86964 4.83602 5.07234 4.83602 7.76952C4.83602 8.12914 4.87887 8.47378 4.93601 8.81842V8.87836ZM9.5071 10.5496C8.02357 10.5496 6.84245 9.28894 6.84245 7.76947C6.84245 6.25 8.02357 4.98937 9.5071 4.98937C10.9906 4.98937 12.1718 6.25 12.1718 7.76947C12.1718 9.28894 10.9906 10.5496 9.5071 10.5496ZM9.5071 6.47382C8.84793 6.47382 8.28632 7.04129 8.28632 7.76947C8.28632 8.49765 8.84793 9.06511 9.5071 9.06511C10.1663 9.06511 10.7279 8.49765 10.7279 7.76947C10.7279 7.04129 10.1663 6.47382 9.5071 6.47382ZM7.15013 7.76947C7.15013 9.13304 8.2072 10.2419 9.5071 10.2419C10.807 10.2419 11.8641 9.13304 11.8641 7.76947C11.8641 6.40589 10.807 5.29705 9.5071 5.29705C8.2072 5.29705 7.15013 6.40589 7.15013 7.76947ZM7.97864 7.76947C7.97864 6.88539 8.66431 6.16614 9.5071 6.16614C10.3499 6.16614 11.0356 6.88539 11.0356 7.76947C11.0356 8.65354 10.3499 9.37279 9.5071 9.37279C8.66431 9.37279 7.97864 8.65354 7.97864 7.76947Z" fill="black"/>
</svg>
