<svg width="19" height="19" viewBox="0 0 19 19" fill="none" xmlns="http://www.w3.org/2000/svg">
<path fill-rule="evenodd" clip-rule="evenodd" d="M5.00109 2.22388C5.00109 1.94773 5.22495 1.72388 5.50109 1.72388H6.30109C6.57723 1.72388 6.80109 1.94773 6.80109 2.22388V3.52389H12.2013V2.22388C12.2013 1.94773 12.4252 1.72388 12.7013 1.72388H13.5013C13.7774 1.72388 14.0013 1.94773 14.0013 2.22388V3.52389H15.8004C16.7945 3.52389 17.6004 4.32978 17.6004 5.32389V15.2239C17.6004 16.218 16.7945 17.0239 15.8004 17.0239H3.20039C2.20628 17.0239 1.40039 16.218 1.40039 15.2239V5.32389C1.40039 4.32978 2.20628 3.52389 3.20039 3.52389H5.00109V2.22388ZM3.20258 15.2241V5.32415H15.8026V15.2241H3.20258Z" fill="black"/>
<path fill-rule="evenodd" clip-rule="evenodd" d="M14.0015 7.12402H10.4015C9.90441 7.12402 9.50146 7.52697 9.50146 8.02402V11.624C9.50146 12.1211 9.90441 12.524 10.4015 12.524H14.0015C14.4985 12.524 14.9015 12.1211 14.9015 11.624V8.02402C14.9015 7.52697 14.4985 7.12402 14.0015 7.12402ZM11.3031 10.7241V8.92406H13.1031V10.7241H11.3031Z" fill="black"/>
<rect x="7.70166" y="9.82397" width="0.899998" height="0.9" fill="black"/>
<rect x="5.90332" y="9.82397" width="0.900001" height="0.9" fill="black"/>
<rect x="4.10107" y="9.82397" width="0.9" height="0.9" fill="black"/>
</svg>
