<svg width="41" height="41" viewBox="0 0 41 41" fill="none" xmlns="http://www.w3.org/2000/svg">
<path fill-rule="evenodd" clip-rule="evenodd" d="M38.2782 20.6992C38.2782 30.5176 30.3188 38.4769 20.5004 38.4769C10.682 38.4769 2.72266 30.5176 2.72266 20.6992C2.72266 10.8808 10.682 2.92139 20.5004 2.92139C30.3188 2.92139 38.2782 10.8808 38.2782 20.6992ZM16.9159 28.3375C17.3036 28.6904 17.8979 28.6841 18.2779 28.323L31.2861 15.9631C31.6936 15.5759 31.702 14.929 31.3048 14.5314L30.0592 13.2847C29.6752 12.9004 29.0547 12.8929 28.6616 13.2678L17.6037 23.8131L12.7599 19.7176C12.3533 19.3738 11.7484 19.409 11.3844 19.7977L10.3063 20.9488C9.92503 21.356 9.95054 21.9963 10.363 22.3718L16.9159 28.3375Z" fill="#27CA27"/>
</svg>
