<svg width="19" height="19" viewBox="0 0 19 19" fill="none" xmlns="http://www.w3.org/2000/svg">
<path d="M14.6191 9.05328C14.4683 9.05328 14.3236 9.11321 14.217 9.21987C14.1103 9.32653 14.0504 9.47119 14.0504 9.62203V14.172H4.95039V5.07203H9.50039C9.65123 5.07203 9.7959 5.01211 9.90256 4.90545C10.0092 4.79879 10.0691 4.65413 10.0691 4.50328C10.0691 4.35244 10.0092 4.20778 9.90256 4.10112C9.7959 3.99446 9.65123 3.93453 9.50039 3.93453H4.38164C4.2308 3.93453 4.08613 3.99446 3.97947 4.10112C3.87281 4.20778 3.81289 4.35244 3.81289 4.50328V14.7408C3.81289 14.8916 3.87281 15.0363 3.97947 15.143C4.08613 15.2496 4.2308 15.3095 4.38164 15.3095H14.6191C14.77 15.3095 14.9146 15.2496 15.0213 15.143C15.128 15.0363 15.1879 14.8916 15.1879 14.7408V9.62203C15.1879 9.47119 15.128 9.32653 15.0213 9.21987C14.9146 9.11321 14.77 9.05328 14.6191 9.05328Z" fill="#1C0056"/>
<path d="M14.8231 3.97998C14.7516 3.95034 14.675 3.9349 14.5976 3.93453H11.6464C11.4898 3.93453 11.3397 3.99672 11.229 4.10741C11.1183 4.21811 11.0561 4.36824 11.0561 4.52478C11.0561 4.68133 11.1183 4.83146 11.229 4.94215C11.3397 5.05285 11.4898 5.11503 11.6464 5.11503H13.1728L8.86809 9.41972C8.81171 9.47417 8.76675 9.5393 8.73581 9.61132C8.70488 9.68333 8.68859 9.76078 8.68791 9.83915C8.68723 9.91753 8.70217 9.99525 8.73185 10.0678C8.76152 10.1403 8.80535 10.2062 8.86077 10.2617C8.91619 10.3171 8.98209 10.3609 9.05463 10.3906C9.12717 10.4203 9.2049 10.4352 9.28327 10.4345C9.36164 10.4338 9.4391 10.4175 9.51111 10.3866C9.58312 10.3557 9.64825 10.3107 9.7027 10.2543L14.0074 5.94965V7.47603C14.0074 7.63258 14.0696 7.78271 14.1803 7.8934C14.291 8.00409 14.4411 8.06628 14.5976 8.06628C14.7542 8.06628 14.9043 8.00409 15.015 7.8934C15.1257 7.78271 15.1879 7.63258 15.1879 7.47603V4.52478C15.1878 4.40809 15.153 4.29405 15.0881 4.19708C15.0232 4.10011 14.931 4.02456 14.8231 3.97998Z" fill="#1C0056"/>
<path fill-rule="evenodd" clip-rule="evenodd" d="M15.1879 4.52478V7.47603C15.1879 7.63258 15.1257 7.78271 15.015 7.8934C14.9043 8.00409 14.7542 8.06628 14.5976 8.06628C14.4411 8.06628 14.291 8.00409 14.1803 7.8934C14.0696 7.78271 14.0074 7.63258 14.0074 7.47603V5.94965L9.7027 10.2543C9.64825 10.3107 9.58312 10.3557 9.51111 10.3866C9.4391 10.4175 9.36164 10.4338 9.28327 10.4345C9.2049 10.4352 9.12717 10.4203 9.05463 10.3906C8.98209 10.3609 8.91619 10.3171 8.86077 10.2617C8.80535 10.2062 8.76152 10.1403 8.73185 10.0678C8.70217 9.99525 8.68723 9.91753 8.68791 9.83915C8.68859 9.76078 8.70488 9.68333 8.73581 9.61132C8.76675 9.5393 8.81171 9.47417 8.86809 9.41972L13.1728 5.11503H11.6464C11.4898 5.11503 11.3397 5.05285 11.229 4.94215C11.1183 4.83146 11.0561 4.68133 11.0561 4.52478C11.0561 4.36824 11.1183 4.21811 11.229 4.10741C11.3397 3.99672 11.4898 3.93453 11.6464 3.93453H14.5976C14.675 3.9349 14.7516 3.95034 14.8231 3.97998C14.931 4.02456 15.0232 4.10011 15.0881 4.19708C15.153 4.29405 15.1878 4.40809 15.1879 4.52478ZM14.8854 3.82987C15.0228 3.88673 15.1404 3.98305 15.2231 4.10667C15.3059 4.23033 15.3502 4.37577 15.3504 4.52459V7.47603C15.3504 7.67567 15.2711 7.86714 15.1299 8.00831C14.9887 8.14947 14.7973 8.22878 14.5976 8.22878C14.398 8.22878 14.2065 8.14947 14.0654 8.00831C13.9242 7.86714 13.8449 7.67567 13.8449 7.47603V6.34196L9.81854 10.3683C9.74931 10.4397 9.66662 10.4967 9.57525 10.5359C9.48341 10.5754 9.38463 10.5961 9.28468 10.597C9.18473 10.5979 9.08561 10.5788 8.9931 10.541C8.90059 10.5031 8.81654 10.4472 8.74587 10.3766C8.67519 10.3059 8.6193 10.2218 8.58145 10.1293C8.5436 10.0368 8.52455 9.93769 8.52542 9.83774C8.52629 9.73779 8.54705 9.63902 8.5865 9.54718C8.62576 9.4558 8.68273 9.37311 8.75412 9.30389L12.7805 5.27753H11.6464C11.4468 5.27753 11.2553 5.19823 11.1141 5.05706C10.973 4.91589 10.8936 4.72442 10.8936 4.52478C10.8936 4.32514 10.973 4.13368 11.1141 3.99251C11.2553 3.85134 11.4468 3.77203 11.6464 3.77203H14.5976C14.6961 3.77251 14.7944 3.79215 14.8854 3.82987ZM14.1021 9.10496C14.2392 8.96783 14.4252 8.89078 14.6191 8.89078C14.8131 8.89078 14.9991 8.96783 15.1362 9.10496C15.2733 9.2421 15.3504 9.42809 15.3504 9.62203V14.7408C15.3504 14.9347 15.2733 15.1207 15.1362 15.2579C14.9991 15.395 14.8131 15.472 14.6191 15.472H4.38164C4.1877 15.472 4.0017 15.395 3.86457 15.2579C3.72743 15.1207 3.65039 14.9347 3.65039 14.7408V4.50328C3.65039 4.30934 3.72743 4.12335 3.86457 3.98621C4.0017 3.84908 4.1877 3.77203 4.38164 3.77203H9.50039C9.69433 3.77203 9.88033 3.84908 10.0175 3.98621C10.1546 4.12335 10.2316 4.30934 10.2316 4.50328C10.2316 4.69722 10.1546 4.88322 10.0175 5.02036C9.88033 5.15749 9.69433 5.23453 9.50039 5.23453H5.11289V14.0095H13.8879V9.62203C13.8879 9.42809 13.9649 9.2421 14.1021 9.10496ZM14.217 9.21987C14.3236 9.11321 14.4683 9.05328 14.6191 9.05328C14.77 9.05328 14.9146 9.11321 15.0213 9.21987C15.128 9.32653 15.1879 9.47119 15.1879 9.62203V14.7408C15.1879 14.8916 15.128 15.0363 15.0213 15.143C14.9146 15.2496 14.77 15.3095 14.6191 15.3095H4.38164C4.2308 15.3095 4.08613 15.2496 3.97947 15.143C3.87281 15.0363 3.81289 14.8916 3.81289 14.7408V4.50328C3.81289 4.35244 3.87281 4.20778 3.97947 4.10112C4.08613 3.99446 4.2308 3.93453 4.38164 3.93453H9.50039C9.65123 3.93453 9.7959 3.99446 9.90256 4.10112C10.0092 4.20778 10.0691 4.35244 10.0691 4.50328C10.0691 4.65413 10.0092 4.79879 9.90256 4.90545C9.7959 5.01211 9.65123 5.07203 9.50039 5.07203H4.95039V14.172H14.0504V9.62203C14.0504 9.47119 14.1103 9.32653 14.217 9.21987Z" fill="#1C0056"/>
</svg>
