<svg width="18" height="18" viewBox="0 0 18 18" fill="none" xmlns="http://www.w3.org/2000/svg">
<path d="M6.6 10C4.728 10 1 10.936 1 12.8V14.2H12.2V12.8C12.2 10.936 8.472 10 6.6 10ZM2.872 12.6C3.544 12.136 5.168 11.6 6.6 11.6C8.032 11.6 9.656 12.136 10.328 12.6H2.872ZM6.6 8.6C8.144 8.6 9.4 7.344 9.4 5.8C9.4 4.256 8.144 3 6.6 3C5.056 3 3.8 4.256 3.8 5.8C3.8 7.344 5.056 8.6 6.6 8.6ZM6.6 4.6C7.264 4.6 7.8 5.136 7.8 5.8C7.8 6.464 7.264 7 6.6 7C5.936 7 5.4 6.464 5.4 5.8C5.4 5.136 5.936 4.6 6.6 4.6ZM12.232 10.048C13.16 10.72 13.8 11.616 13.8 12.8V14.2H17V12.8C17 11.184 14.2 10.264 12.232 10.048ZM11.4 8.6C12.944 8.6 14.2 7.344 14.2 5.8C14.2 4.256 12.944 3 11.4 3C10.968 3 10.568 3.104 10.2 3.28C10.704 3.992 11 4.864 11 5.8C11 6.736 10.704 7.608 10.2 8.32C10.568 8.496 10.968 8.6 11.4 8.6Z" fill="#0A3040"/>
</svg>
