<svg width="40" height="41" viewBox="0 0 40 41" fill="none" xmlns="http://www.w3.org/2000/svg">
<path fill-rule="evenodd" clip-rule="evenodd" d="M38.5361 20.1221C38.5361 30.3433 30.2206 38.6586 19.9994 38.6586C9.77826 38.6586 1.46289 30.3433 1.46289 20.1221C1.46289 9.90092 9.77836 1.58545 19.9995 1.58545C30.2207 1.58545 38.5361 9.90092 38.5361 20.1221ZM23.2709 19.0316C23.2709 20.8382 21.8063 22.3028 19.9997 22.3028C18.1931 22.3028 16.7286 20.8382 16.7286 19.0316V11.3989C16.7286 9.5923 18.1931 8.12775 19.9997 8.12775C21.8063 8.12775 23.2709 9.5923 23.2709 11.3989V19.0316ZM19.9997 31.0259C21.8035 31.0259 23.2709 29.5585 23.2709 27.7547C23.2709 25.951 21.8035 24.4836 19.9997 24.4836C18.196 24.4836 16.7286 25.951 16.7286 27.7547C16.7286 29.5585 18.196 31.0259 19.9997 31.0259Z" fill="#F5A623"/>
</svg>
