<svg width="159" height="24" viewBox="0 0 159 24" fill="none" xmlns="http://www.w3.org/2000/svg">
<path d="M115.336 3.19815C116.733 3.19815 118.03 3.46356 119.228 3.9944C120.425 4.52524 121.476 5.25317 122.379 6.17819V4.25457C122.379 3.79205 122.61 3.5608 123.073 3.5608H124.696C125.189 3.5608 125.436 3.79205 125.436 4.25457V22.9075C125.436 23.1177 125.368 23.2859 125.231 23.412C125.095 23.5382 124.932 23.6012 124.743 23.6012H123.104C122.884 23.6012 122.708 23.5329 122.576 23.3962C122.445 23.2596 122.379 23.0967 122.379 22.9075V20.9365C121.476 21.8616 120.425 22.5895 119.228 23.1203C118.03 23.6512 116.733 23.9166 115.336 23.9166C114.401 23.9166 113.495 23.7931 112.617 23.546C111.74 23.299 110.918 22.9469 110.151 22.4896C109.385 22.0324 108.686 21.4884 108.056 20.8577C107.425 20.227 106.882 19.5253 106.425 18.7527C105.968 17.9801 105.616 17.155 105.369 16.2772C105.122 15.3995 104.999 14.4876 104.999 13.5416C104.999 12.5955 105.122 11.6837 105.369 10.8059C105.616 9.92822 105.968 9.10569 106.425 8.33834C106.882 7.57098 107.425 6.87197 108.056 6.24126C108.686 5.61056 109.385 5.06922 110.151 4.61722C110.918 4.16522 111.738 3.81571 112.61 3.56868C113.482 3.32166 114.39 3.19815 115.336 3.19815ZM135.495 3.19815C136.294 3.19815 136.981 3.27195 137.557 3.41956C138.133 3.56718 138.644 3.78596 139.09 4.07591C139.537 4.36587 139.947 4.72435 140.32 5.15137C140.694 5.5784 141.083 6.07131 141.488 6.63013C141.612 6.84101 141.68 7.02288 141.69 7.17577C141.7 7.32865 141.607 7.4789 141.41 7.62651L140.196 8.55963C139.957 8.6967 139.775 8.7336 139.651 8.67034C139.526 8.60708 139.391 8.48583 139.246 8.30658C139.007 8.0219 138.774 7.74777 138.546 7.48417C138.317 7.22058 138.058 6.98598 137.767 6.78038C137.477 6.57478 137.147 6.41135 136.779 6.2901C136.41 6.16884 135.972 6.10822 135.464 6.10822C135.007 6.10822 134.566 6.16093 134.14 6.26637C133.715 6.37181 133.334 6.54051 132.996 6.77247C132.659 7.00443 132.389 7.29702 132.187 7.65024C131.985 8.00345 131.883 8.42256 131.883 8.90758C131.883 9.27661 132.008 9.61664 132.257 9.92768C132.506 10.2387 132.823 10.5208 133.207 10.7738C133.591 11.0269 134.011 11.243 134.467 11.4223C134.924 11.6015 135.365 11.7438 135.79 11.8493C136.776 12.0812 137.677 12.3765 138.491 12.735C139.306 13.0934 140.004 13.5205 140.585 14.016C141.166 14.5116 141.617 15.0888 141.939 15.7478C142.261 16.4068 142.422 17.1528 142.422 17.9857C142.422 18.903 142.242 19.7281 141.884 20.4609C141.526 21.1937 141.028 21.8157 140.39 22.3271C139.752 22.8385 138.992 23.2312 138.11 23.5054C137.228 23.7795 136.268 23.9166 135.23 23.9166C134.576 23.9166 133.904 23.8322 133.214 23.6635C132.524 23.4948 131.873 23.2365 131.261 22.8886C130.649 22.5406 130.093 22.1031 129.595 21.5759C129.097 21.0487 128.718 20.4266 128.459 19.7096C128.407 19.5515 128.371 19.4223 128.35 19.3221C128.329 19.222 128.332 19.1376 128.358 19.0691C128.384 19.0006 128.425 18.9399 128.482 18.8872C128.539 18.8345 128.62 18.7818 128.724 18.7291L130.202 18.0332C130.462 17.9277 130.664 17.9409 130.809 18.0727C130.955 18.2045 131.069 18.3653 131.152 18.5551C131.308 18.9663 131.554 19.3274 131.891 19.6385C132.228 19.9495 132.594 20.2052 132.989 20.4055C133.383 20.6058 133.782 20.7561 134.187 20.8563C134.592 20.9564 134.94 21.0065 135.23 21.0065C135.624 21.0065 136.06 20.9485 136.538 20.8325C137.015 20.7166 137.464 20.5373 137.884 20.2948C138.304 20.0523 138.657 19.7386 138.943 19.3538C139.228 18.9689 139.371 18.5129 139.371 17.9857C139.371 17.4164 139.236 16.9577 138.966 16.6098C138.696 16.2618 138.346 15.9745 137.915 15.7478C137.485 15.5211 137.002 15.3393 136.468 15.2022C135.933 15.0651 135.401 14.9228 134.872 14.7752C133.938 14.5221 133.105 14.2137 132.374 13.8499C131.642 13.4862 131.02 13.0644 130.506 12.5847C129.992 12.105 129.6 11.5567 129.331 10.9399C129.061 10.3231 128.926 9.62983 128.926 8.86013C128.926 8.01663 129.087 7.24694 129.408 6.55105C129.73 5.85516 130.179 5.25945 130.755 4.76389C131.331 4.26833 132.021 3.88349 132.825 3.60935C133.629 3.33521 134.519 3.19815 135.495 3.19815ZM151.928 3.19815C152.727 3.19815 153.414 3.27195 153.99 3.41956C154.566 3.56718 155.077 3.78596 155.523 4.07591C155.97 4.36587 156.379 4.72435 156.753 5.15137C157.127 5.5784 157.516 6.07131 157.92 6.63013C158.045 6.84101 158.112 7.02288 158.123 7.17577C158.133 7.32865 158.04 7.4789 157.843 7.62651L156.628 8.55963C156.39 8.6967 156.208 8.7336 156.084 8.67034C155.959 8.60708 155.824 8.48583 155.679 8.30658C155.44 8.0219 155.207 7.74777 154.978 7.48417C154.75 7.22058 154.491 6.98598 154.2 6.78038C153.91 6.57478 153.58 6.41135 153.212 6.2901C152.843 6.16884 152.405 6.10822 151.896 6.10822C151.44 6.10822 150.999 6.16093 150.573 6.26637C150.148 6.37181 149.767 6.54051 149.429 6.77247C149.092 7.00443 148.822 7.29702 148.62 7.65024C148.417 8.00345 148.316 8.42256 148.316 8.90758C148.316 9.27661 148.441 9.61664 148.69 9.92768C148.939 10.2387 149.255 10.5208 149.639 10.7738C150.023 11.0269 150.444 11.243 150.9 11.4223C151.357 11.6015 151.798 11.7438 152.223 11.8493C153.209 12.0812 154.109 12.3765 154.924 12.735C155.739 13.0934 156.436 13.5205 157.018 14.016C157.599 14.5116 158.05 15.0888 158.372 15.7478C158.694 16.4068 158.854 17.1528 158.854 17.9857C158.854 18.903 158.675 19.7281 158.317 20.4609C157.959 21.1937 157.461 21.8157 156.823 22.3271C156.185 22.8385 155.425 23.2312 154.543 23.5054C153.661 23.7795 152.701 23.9166 151.663 23.9166C151.009 23.9166 150.337 23.8322 149.647 23.6635C148.957 23.4948 148.306 23.2365 147.694 22.8886C147.081 22.5406 146.526 22.1031 146.028 21.5759C145.53 21.0487 145.151 20.4266 144.892 19.7096C144.84 19.5515 144.804 19.4223 144.783 19.3221C144.762 19.222 144.765 19.1376 144.791 19.0691C144.817 19.0006 144.858 18.9399 144.915 18.8872C144.972 18.8345 145.053 18.7818 145.156 18.7291L146.635 18.0332C146.895 17.9277 147.097 17.9409 147.242 18.0727C147.388 18.2045 147.502 18.3653 147.585 18.5551C147.74 18.9663 147.987 19.3274 148.324 19.6385C148.661 19.9495 149.027 20.2052 149.421 20.4055C149.816 20.6058 150.215 20.7561 150.62 20.8563C151.025 20.9564 151.372 21.0065 151.663 21.0065C152.057 21.0065 152.493 20.9485 152.97 20.8325C153.448 20.7166 153.897 20.5373 154.317 20.2948C154.737 20.0523 155.09 19.7386 155.375 19.3538C155.661 18.9689 155.803 18.5129 155.803 17.9857C155.803 17.4164 155.669 16.9577 155.399 16.6098C155.129 16.2618 154.779 15.9745 154.348 15.7478C153.917 15.5211 153.435 15.3393 152.9 15.2022C152.366 15.0651 151.834 14.9228 151.305 14.7752C150.371 14.5221 149.538 14.2137 148.807 13.8499C148.075 13.4862 147.452 13.0644 146.939 12.5847C146.425 12.105 146.033 11.5567 145.764 10.9399C145.494 10.3231 145.359 9.62983 145.359 8.86013C145.359 8.01663 145.52 7.24694 145.841 6.55105C146.163 5.85516 146.612 5.25945 147.188 4.76389C147.764 4.26833 148.454 3.88349 149.258 3.60935C150.062 3.33521 150.952 3.19815 151.928 3.19815ZM96.2429 0C97.2767 0 98.2349 0.195167 99.1173 0.585508C99.9997 0.975848 100.765 1.50596 101.412 2.17587C102.06 2.84578 102.566 3.62645 102.931 4.5179C103.297 5.40936 103.48 6.35091 103.48 7.34258C103.48 8.31316 103.3 9.23625 102.939 10.1119C102.579 10.9875 102.078 11.7603 101.436 12.4302C100.793 13.1001 100.036 13.6328 99.1643 14.0284C98.2923 14.4241 97.3446 14.6219 96.3212 14.6219H90.7605V22.8031C90.7605 23.2673 90.5307 23.4994 90.0713 23.4994H88.4265C87.967 23.4994 87.7373 23.2673 87.7373 22.8031V0.759577C87.7373 0.25319 87.9775 0 88.4579 0H96.2429ZM115.324 5.97914C114.335 5.97914 113.407 6.18086 112.539 6.5843C111.671 6.98774 110.913 7.52919 110.266 8.20866C109.619 8.88813 109.109 9.68173 108.735 10.5895C108.362 11.4972 108.175 12.45 108.175 13.448C108.175 14.4354 108.362 15.3856 108.735 16.2986C109.109 17.2117 109.619 18.0159 110.266 18.7113C110.913 19.4067 111.671 19.9614 112.539 20.3755C113.407 20.7895 114.335 20.9965 115.324 20.9965C116.313 20.9965 117.247 20.7895 118.125 20.3755C119.004 19.9614 119.769 19.4067 120.422 18.7113C121.074 18.0159 121.589 17.2117 121.968 16.2986C122.347 15.3856 122.536 14.4354 122.536 13.448C122.536 12.45 122.347 11.4972 121.968 10.5895C121.589 9.68173 121.074 8.88813 120.422 8.20866C119.769 7.52919 119.004 6.98774 118.125 6.5843C117.247 6.18086 116.313 5.97914 115.324 5.97914ZM96.181 2.92005H90.6372V11.5411H96.181C96.7512 11.5411 97.295 11.4245 97.8124 11.1912C98.3298 10.9579 98.7839 10.6424 99.1746 10.2448C99.5653 9.84714 99.8741 9.38852 100.101 8.86892C100.328 8.34932 100.442 7.80321 100.442 7.23059C100.442 6.66858 100.331 6.12777 100.109 5.60817C99.8873 5.08857 99.5838 4.62995 99.1983 4.2323C98.8129 3.83464 98.3615 3.51653 97.8441 3.27793C97.3267 3.03934 96.7723 2.92005 96.181 2.92005Z" fill="#16688A"/>
<path d="M4.65122 12.5034C4.65122 13.4099 4.75436 14.2911 4.96065 15.1472C5.16694 16.0033 5.49601 16.7738 5.94789 17.4587C6.39976 18.1436 6.98914 18.6925 7.71607 19.1054C8.44299 19.5184 9.32707 19.7248 10.3683 19.7248C11.4096 19.7248 12.2937 19.5184 13.0206 19.1054C13.7475 18.6925 14.3369 18.1436 14.7888 17.4587C15.2407 16.7738 15.5697 16.0033 15.776 15.1472C15.9823 14.2911 16.0855 13.4099 16.0855 12.5034C16.0855 11.5566 15.9823 10.6401 15.776 9.7538C15.5697 8.86748 15.2407 8.07685 14.7888 7.38189C14.3369 6.68694 13.7475 6.133 13.0206 5.72005C12.2937 5.30711 11.4096 5.10064 10.3683 5.10064C9.32707 5.10064 8.44299 5.30711 7.71607 5.72005C6.98914 6.133 6.39976 6.68694 5.94789 7.38189C5.49601 8.07685 5.16694 8.86748 4.96065 9.7538C4.75436 10.6401 4.65122 11.5566 4.65122 12.5034ZM0 12.4212C0 10.8063 0.238522 9.30749 0.715572 7.92472C1.19262 6.54195 1.87837 5.33583 2.77284 4.30632C3.66731 3.27682 4.76551 2.46937 6.06746 1.88396C7.36941 1.29856 8.83532 1.00586 10.4652 1.00586C12.115 1.00586 13.5859 1.29856 14.8779 1.88396C16.1699 2.46937 17.2632 3.27682 18.1576 4.30632C19.0521 5.33583 19.7379 6.54195 20.2149 7.92472C20.692 9.30749 20.9305 10.8063 20.9305 12.4212C20.9305 13.9958 20.692 15.4643 20.2149 16.8269C19.7379 18.1895 19.0521 19.3754 18.1576 20.3847C17.2632 21.3941 16.1699 22.1864 14.8779 22.7617C13.5859 23.337 12.115 23.6246 10.4652 23.6246C8.83532 23.6246 7.36941 23.337 6.06746 22.7617C4.76551 22.1864 3.66731 21.3941 2.77284 20.3847C1.87837 19.3754 1.19262 18.1895 0.715572 16.8269C0.238522 15.4643 0 13.9958 0 12.4212ZM34.4965 15.2925C34.4965 14.6516 34.4369 14.0357 34.3176 13.4448C34.1984 12.854 33.9946 12.3332 33.7064 11.8826C33.4182 11.4319 33.0455 11.0664 32.5883 10.786C32.1312 10.5056 31.5547 10.3654 30.859 10.3654C30.1633 10.3654 29.577 10.5056 29.0999 10.786C28.6229 11.0664 28.2403 11.4369 27.952 11.8976C27.6638 12.3583 27.4551 12.884 27.3259 13.4749C27.1967 14.0657 27.1321 14.6816 27.1321 15.3226C27.1321 15.9234 27.2017 16.5243 27.3408 17.1252C27.48 17.7261 27.7036 18.2618 28.0117 18.7325C28.3198 19.2032 28.7074 19.5838 29.1745 19.8742C29.6416 20.1646 30.2031 20.3098 30.859 20.3098C31.5547 20.3098 32.1361 20.1696 32.6033 19.8892C33.0704 19.6088 33.4431 19.2333 33.7213 18.7626C33.9996 18.2919 34.1984 17.7561 34.3176 17.1552C34.4369 16.5544 34.4965 15.9335 34.4965 15.2925ZM34.5374 21.2303H34.4777C33.9803 22.0789 33.3288 22.6901 32.523 23.0639C31.7172 23.4377 30.807 23.6246 29.7923 23.6246C28.6383 23.6246 27.6236 23.3973 26.7482 22.9427C25.8728 22.4881 25.1515 21.8718 24.5845 21.0939C24.0175 20.316 23.5897 19.422 23.3012 18.4117C23.0127 17.4014 22.8685 16.3508 22.8685 15.2597C22.8685 14.209 23.0127 13.1937 23.3012 12.2137C23.5897 11.2338 24.0175 10.37 24.5845 9.62241C25.1515 8.87481 25.8628 8.27371 26.7183 7.81909C27.5739 7.36447 28.5687 7.13716 29.7027 7.13716C30.6179 7.13716 31.4884 7.33416 32.3141 7.72817C33.1398 8.12217 33.7913 8.70307 34.2688 9.47087H34.3285V1.59083H38.5664V23.2306H34.5374V21.2303ZM52.7138 15.2925C52.7138 14.6516 52.6542 14.0357 52.5349 13.4448C52.4157 12.854 52.2119 12.3332 51.9237 11.8826C51.6355 11.4319 51.2628 11.0664 50.8056 10.786C50.3484 10.5056 49.772 10.3654 49.0763 10.3654C48.3806 10.3654 47.7943 10.5056 47.3172 10.786C46.8402 11.0664 46.4575 11.4369 46.1693 11.8976C45.8811 12.3583 45.6724 12.884 45.5432 13.4749C45.414 14.0657 45.3494 14.6816 45.3494 15.3226C45.3494 15.9234 45.4189 16.5243 45.5581 17.1252C45.6972 17.7261 45.9208 18.2618 46.2289 18.7325C46.537 19.2032 46.9246 19.5838 47.3917 19.8742C47.8589 20.1646 48.4204 20.3098 49.0763 20.3098C49.772 20.3098 50.3534 20.1696 50.8205 19.8892C51.2876 19.6088 51.6603 19.2333 51.9386 18.7626C52.2169 18.2919 52.4157 17.7561 52.5349 17.1552C52.6542 16.5544 52.7138 15.9335 52.7138 15.2925ZM52.7547 21.2303H52.695C52.1976 22.0789 51.546 22.6901 50.7402 23.0639C49.9345 23.4377 49.0242 23.6246 48.0095 23.6246C46.8556 23.6246 45.8409 23.3973 44.9655 22.9427C44.09 22.4881 43.3688 21.8718 42.8018 21.0939C42.2347 20.316 41.807 19.422 41.5185 18.4117C41.23 17.4014 41.0858 16.3508 41.0858 15.2597C41.0858 14.209 41.23 13.1937 41.5185 12.2137C41.807 11.2338 42.2347 10.37 42.8018 9.62241C43.3688 8.87481 44.0801 8.27371 44.9356 7.81909C45.7911 7.36447 46.7859 7.13716 47.92 7.13716C48.8352 7.13716 49.7057 7.33416 50.5313 7.72817C51.357 8.12217 52.0086 8.70307 52.4861 9.47087H52.5458V1.59083H56.7836V23.2306H52.7547V21.2303ZM60.0782 1.59083H64.3419V23.2347H60.0782V1.59083ZM77.9079 13.6802C77.7122 12.5953 77.3647 11.7716 76.8655 11.2091C76.3663 10.6466 75.6078 10.3654 74.5898 10.3654C73.9242 10.3654 73.3712 10.4809 72.9308 10.7119C72.4903 10.9429 72.1379 11.2292 71.8737 11.5707C71.6094 11.9123 71.4234 12.2739 71.3158 12.6556C71.2081 13.0373 71.1445 13.3788 71.1249 13.6802H77.9079ZM74.6961 7.05053C76.0019 7.05053 77.1395 7.30645 78.109 7.8183C79.0785 8.33015 79.8748 9.01763 80.498 9.88075C81.1213 10.7439 81.5714 11.7274 81.8484 12.8314C82.1254 13.9354 82.2243 15.0895 82.1451 16.2939H71.0755C71.1348 17.6789 71.481 18.6825 72.1142 19.3048C72.7473 19.927 73.6574 20.2381 74.8445 20.2381C75.6953 20.2381 76.4273 20.0224 77.0406 19.5908C77.654 19.1592 78.0299 18.7026 78.1684 18.2208H81.8781C81.2845 20.0876 80.3744 21.4224 79.1477 22.2253C77.9211 23.0282 76.4372 23.4296 74.6961 23.4296C73.4892 23.4296 72.4011 23.2339 71.4316 22.8425C70.4621 22.4511 69.6411 21.8941 68.9684 21.1715C68.2957 20.4489 67.7763 19.5858 67.4103 18.5822C67.0443 17.5785 66.8613 16.4746 66.8613 15.2702C66.8613 14.106 67.0492 13.0221 67.4251 12.0185C67.8011 11.0148 68.3352 10.1467 69.0277 9.41406C69.7202 8.68142 70.5462 8.10434 71.5058 7.68281C72.4654 7.26129 73.5288 7.05053 74.6961 7.05053Z" fill="#0A3040"/>
</svg>
