<svg width="120" height="71" viewBox="0 0 120 71" fill="none" xmlns="http://www.w3.org/2000/svg">
<rect x="11.3799" y="1.5" width="96.4168" height="64.7727" rx="3.5" fill="#E4F5FB" stroke="#8D8D8D" stroke-width="3"/>
<rect x="32.8301" y="12.3969" width="6.79245" height="3.38095" rx="1.69048" fill="white"/>
<rect x="16.9812" y="12.3969" width="12.4528" height="3.38095" rx="1.69048" fill="white"/>
<rect x="13.585" y="5.63489" width="30.566" height="3.38095" rx="1.69048" fill="white"/>
<rect x="93.9624" y="51.954" width="6.79245" height="3.38095" rx="1.69048" fill="white"/>
<rect x="78.1133" y="51.954" width="12.4528" height="3.38095" rx="1.69048" fill="white"/>
<rect x="80.3774" y="58.7159" width="24.9057" height="3.38095" rx="1.69048" fill="white"/>
<rect y="64.238" width="120" height="6.7619" rx="3" fill="#8D8D8D"/>
<ellipse cx="59.4339" cy="33.8095" rx="15.283" ry="15.2143" fill="white"/>
<path d="M58.9137 38.5282C58.2502 38.5282 57.7032 37.9824 57.7843 37.3239C57.8428 36.8486 57.9333 36.4427 58.0558 36.106C58.2715 35.5133 58.7116 34.8562 59.3759 34.1347L61.0714 32.3953C61.7962 31.5794 62.1586 30.7032 62.1586 29.767C62.1586 28.8651 61.9213 28.1608 61.4467 27.654C60.9722 27.1386 60.2819 26.8809 59.3759 26.8809C58.4959 26.8809 57.7884 27.1128 57.2534 27.5767C57.015 27.7834 56.8297 28.0217 56.6975 28.2915C56.4085 28.8816 55.9183 29.4449 55.2612 29.4449C54.5984 29.4449 54.0434 28.895 54.2048 28.2521C54.4194 27.3976 54.8661 26.6742 55.545 26.0821C56.5286 25.2232 57.8056 24.7937 59.3759 24.7937C61.0067 24.7937 62.275 25.2318 63.181 26.1079C64.0956 26.9754 64.5529 28.1693 64.5529 29.6897C64.5529 31.1928 63.854 32.6745 62.4562 34.1347L61.0455 35.5262C60.6213 35.9948 60.3399 36.6017 60.2014 37.3469C60.0816 37.9915 59.5693 38.5282 58.9137 38.5282ZM57.6028 41.4855C57.6028 41.099 57.7193 40.7769 57.9523 40.5192C58.1939 40.2529 58.5476 40.1198 59.0136 40.1198C59.4795 40.1198 59.8332 40.2529 60.0748 40.5192C60.3164 40.7769 60.4372 41.099 60.4372 41.4855C60.4372 41.872 60.3164 42.1941 60.0748 42.4518C59.8332 42.7009 59.4795 42.8254 59.0136 42.8254C58.5476 42.8254 58.1939 42.7009 57.9523 42.4518C57.7193 42.1941 57.6028 41.872 57.6028 41.4855Z" fill="#2699BD"/>
</svg>
