<svg width="56" height="37" viewBox="0 0 56 37" fill="none" xmlns="http://www.w3.org/2000/svg">
<path d="M3.14143 7.76543C3.14143 8.37765 3.21109 8.97286 3.35042 9.55108C3.48975 10.1293 3.71201 10.6497 4.0172 11.1122C4.32239 11.5748 4.72047 11.9455 5.21143 12.2244C5.70239 12.5033 6.2995 12.6428 7.00277 12.6428C7.70605 12.6428 8.30315 12.5033 8.79412 12.2244C9.28508 11.9455 9.68316 11.5748 9.98835 11.1122C10.2935 10.6497 10.5158 10.1293 10.6551 9.55108C10.7945 8.97286 10.8641 8.37765 10.8641 7.76543C10.8641 7.12599 10.7945 6.50697 10.6551 5.90835C10.5158 5.30973 10.2935 4.77574 9.98835 4.30637C9.68316 3.837 9.28508 3.46287 8.79412 3.18396C8.30315 2.90506 7.70605 2.76561 7.00277 2.76561C6.2995 2.76561 5.70239 2.90506 5.21143 3.18396C4.72047 3.46287 4.32239 3.837 4.0172 4.30637C3.71201 4.77574 3.48975 5.30973 3.35042 5.90835C3.21109 6.50697 3.14143 7.12599 3.14143 7.76543ZM0 7.70993C0 6.61922 0.161097 5.60692 0.483297 4.673C0.805497 3.73907 1.26865 2.92446 1.87278 2.22913C2.4769 1.5338 3.21862 0.988455 4.09796 0.593072C4.97729 0.197689 5.96737 0 7.06822 0C8.1825 0 9.17593 0.197689 10.0486 0.593072C10.9212 0.988455 11.6595 1.5338 12.2637 2.22913C12.8678 2.92446 13.3309 3.73907 13.6531 4.673C13.9753 5.60692 14.1364 6.61922 14.1364 7.70993C14.1364 8.77338 13.9753 9.76523 13.6531 10.6855C13.3309 11.6058 12.8678 12.4068 12.2637 13.0885C11.6595 13.7702 10.9212 14.3053 10.0486 14.6939C9.17593 15.0824 8.1825 15.2767 7.06822 15.2767C5.96737 15.2767 4.97729 15.0824 4.09796 14.6939C3.21862 14.3053 2.4769 13.7702 1.87278 13.0885C1.26865 12.4068 0.805497 11.6058 0.483297 10.6855C0.161097 9.76523 0 8.77338 0 7.70993ZM23.299 9.64921C23.299 9.21632 23.2587 8.80035 23.1781 8.40128C23.0976 8.00221 22.96 7.65049 22.7653 7.34612C22.5706 7.04175 22.3189 6.79487 22.0102 6.60548C21.7014 6.41609 21.3121 6.3214 20.8422 6.3214C20.3723 6.3214 19.9763 6.41609 19.6541 6.60548C19.3319 6.79487 19.0735 7.04513 18.8788 7.35627C18.6841 7.6674 18.5432 8.0225 18.4559 8.42157C18.3686 8.82064 18.325 9.23661 18.325 9.6695C18.325 10.0753 18.372 10.4812 18.466 10.887C18.56 11.2928 18.711 11.6547 18.9191 11.9726C19.1272 12.2905 19.3889 12.5475 19.7044 12.7437C20.0199 12.9398 20.3992 13.0379 20.8422 13.0379C21.3121 13.0379 21.7047 12.9432 22.0202 12.7538C22.3357 12.5644 22.5874 12.3108 22.7754 11.9929C22.9633 11.675 23.0976 11.3131 23.1781 10.9073C23.2587 10.5014 23.299 10.0821 23.299 9.64921ZM23.3266 13.6596H23.2863C22.9503 14.2328 22.5102 14.6456 21.966 14.898C21.4218 15.1505 20.807 15.2767 20.1217 15.2767C19.3423 15.2767 18.657 15.1232 18.0657 14.8161C17.4745 14.5091 16.9873 14.0929 16.6044 13.5675C16.2214 13.0421 15.9325 12.4382 15.7376 11.7559C15.5428 11.0736 15.4454 10.3639 15.4454 9.62702C15.4454 8.91739 15.5428 8.23166 15.7376 7.56979C15.9325 6.90793 16.2214 6.32454 16.6044 5.81961C16.9873 5.31469 17.4677 4.9087 18.0456 4.60165C18.6234 4.2946 19.2953 4.14108 20.0612 4.14108C20.6793 4.14108 21.2672 4.27413 21.8249 4.54024C22.3826 4.80635 22.8227 5.19869 23.1452 5.71726H23.1855V0.395087H26.0477V15.0106H23.3266V13.6596ZM35.6029 9.64921C35.6029 9.21632 35.5626 8.80035 35.4821 8.40128C35.4015 8.00221 35.2639 7.65049 35.0692 7.34612C34.8746 7.04175 34.6229 6.79487 34.3141 6.60548C34.0053 6.41609 33.616 6.3214 33.1461 6.3214C32.6763 6.3214 32.2802 6.41609 31.958 6.60548C31.6358 6.79487 31.3774 7.04513 31.1827 7.35627C30.9881 7.6674 30.8471 8.0225 30.7598 8.42157C30.6726 8.82064 30.629 9.23661 30.629 9.6695C30.629 10.0753 30.6759 10.4812 30.7699 10.887C30.8639 11.2928 31.0149 11.6547 31.223 11.9726C31.4311 12.2905 31.6929 12.5475 32.0084 12.7437C32.3239 12.9398 32.7031 13.0379 33.1461 13.0379C33.616 13.0379 34.0087 12.9432 34.3242 12.7538C34.6397 12.5644 34.8914 12.3108 35.0793 11.9929C35.2673 11.675 35.4015 11.3131 35.4821 10.9073C35.5626 10.5014 35.6029 10.0821 35.6029 9.64921ZM35.6305 13.6596H35.5902C35.2543 14.2328 34.8142 14.6456 34.2699 14.898C33.7257 15.1505 33.1109 15.2767 32.4256 15.2767C31.6462 15.2767 30.9609 15.1232 30.3697 14.8161C29.7784 14.5091 29.2913 14.0929 28.9083 13.5675C28.5253 13.0421 28.2364 12.4382 28.0416 11.7559C27.8467 11.0736 27.7493 10.3639 27.7493 9.62702C27.7493 8.91739 27.8467 8.23166 28.0416 7.56979C28.2364 6.90793 28.5253 6.32454 28.9083 5.81961C29.2913 5.31469 29.7717 4.9087 30.3495 4.60165C30.9273 4.2946 31.5992 4.14108 32.3652 4.14108C32.9833 4.14108 33.5712 4.27413 34.1288 4.54024C34.6865 4.80635 35.1266 5.19869 35.4491 5.71726H35.4894V0.395087H38.3516V15.0106H35.6305V13.6596ZM40.5768 0.395087H43.4565V15.0133H40.5768V0.395087ZM52.619 8.56023C52.4868 7.82752 52.2521 7.27121 51.9149 6.89128C51.5778 6.51136 51.0654 6.3214 50.3779 6.3214C49.9284 6.3214 49.5549 6.39942 49.2574 6.55546C48.9599 6.7115 48.7219 6.90485 48.5434 7.13552C48.365 7.36619 48.2394 7.61042 48.1666 7.86823C48.0939 8.12603 48.0509 8.3567 48.0377 8.56023H52.619ZM50.4497 4.08257C51.3317 4.08257 52.1 4.25542 52.7548 4.60112C53.4096 4.94683 53.9474 5.41115 54.3684 5.9941C54.7893 6.57705 55.0933 7.24133 55.2804 7.98696C55.4674 8.7326 55.5343 9.51211 55.4808 10.3255H48.0043C48.0444 11.261 48.2783 11.9388 48.7059 12.3591C49.1335 12.7793 49.7482 12.9895 50.5499 12.9895C51.1245 12.9895 51.619 12.8437 52.0332 12.5523C52.4475 12.2608 52.7014 11.9524 52.7949 11.627H55.3004C54.8995 12.8878 54.2848 13.7893 53.4563 14.3316C52.6279 14.8739 51.6257 15.145 50.4497 15.145C49.6346 15.145 48.8997 15.0128 48.2449 14.7485C47.5901 14.4841 47.0355 14.1079 46.5812 13.6199C46.1269 13.1318 45.7761 12.5489 45.5289 11.871C45.2817 11.1932 45.1581 10.4475 45.1581 9.63413C45.1581 8.84782 45.285 8.11576 45.5389 7.43791C45.7928 6.76006 46.1536 6.17373 46.6213 5.6789C47.089 5.18407 47.6469 4.79431 48.295 4.50961C48.9431 4.22492 49.6613 4.08257 50.4497 4.08257Z" fill="#0A3040"/>
<path d="M26.1061 22.5536C27.0497 22.5536 27.9259 22.7328 28.7348 23.0914C29.5436 23.4499 30.2531 23.9415 30.8633 24.5663V23.2671C30.8633 22.9547 31.0194 22.7985 31.3316 22.7985H32.4278C32.7613 22.7985 32.928 22.9547 32.928 23.2671V35.8652C32.928 36.0072 32.8819 36.1208 32.7896 36.206C32.6974 36.2912 32.5874 36.3338 32.4597 36.3338H31.3529C31.2039 36.3338 31.085 36.2877 30.9964 36.1954C30.9077 36.1031 30.8633 35.993 30.8633 35.8652V34.5341C30.2531 35.1588 29.5436 35.6505 28.7348 36.009C27.9259 36.3675 27.0497 36.5468 26.1061 36.5468C25.4746 36.5468 24.8626 36.4634 24.2702 36.2965C23.6778 36.1297 23.1226 35.8919 22.6046 35.583C22.0867 35.2742 21.6149 34.9068 21.1892 34.4808C20.7635 34.0549 20.3963 33.581 20.0876 33.0591C19.779 32.5373 19.5413 31.98 19.3746 31.3872C19.2079 30.7944 19.1245 30.1785 19.1245 29.5395C19.1245 28.9006 19.2079 28.2847 19.3746 27.6919C19.5413 27.0991 19.779 26.5435 20.0876 26.0253C20.3963 25.507 20.7635 25.0349 21.1892 24.6089C21.6149 24.1829 22.0867 23.8173 22.6046 23.512C23.1226 23.2067 23.676 22.9707 24.2649 22.8038C24.8538 22.637 25.4675 22.5536 26.1061 22.5536ZM39.7215 22.5536C40.2611 22.5536 40.7255 22.6034 41.1145 22.7031C41.5034 22.8028 41.8486 22.9506 42.15 23.1464C42.4514 23.3423 42.7282 23.5844 42.9805 23.8728C43.2328 24.1612 43.4957 24.4941 43.769 24.8715C43.8531 25.014 43.8987 25.1368 43.9057 25.2401C43.9127 25.3433 43.8496 25.4448 43.7165 25.5445L42.8964 26.1747C42.7352 26.2673 42.6126 26.2922 42.5285 26.2495C42.4444 26.2068 42.3533 26.1249 42.2551 26.0038C42.0939 25.8115 41.9362 25.6264 41.782 25.4484C41.6278 25.2703 41.4526 25.1119 41.2564 24.973C41.0601 24.8342 40.8376 24.7238 40.5888 24.6419C40.34 24.56 40.0439 24.519 39.7004 24.519C39.392 24.519 39.0942 24.5546 38.8068 24.6259C38.5195 24.6971 38.2619 24.811 38.0341 24.9677C37.8063 25.1243 37.6241 25.322 37.4874 25.5605C37.3507 25.7991 37.2824 26.0821 37.2824 26.4097C37.2824 26.659 37.3665 26.8886 37.5347 27.0987C37.7029 27.3088 37.9167 27.4993 38.176 27.6702C38.4354 27.8411 38.7192 27.9871 39.0276 28.1081C39.336 28.2292 39.6339 28.3253 39.9212 28.3966C40.587 28.5532 41.1951 28.7526 41.7452 28.9947C42.2954 29.2369 42.7668 29.5253 43.1593 29.86C43.5518 30.1947 43.8566 30.5845 44.0739 31.0296C44.2912 31.4747 44.3998 31.9785 44.3998 32.5411C44.3998 33.1607 44.2789 33.7179 44.0371 34.2128C43.7953 34.7077 43.4589 35.1279 43.0278 35.4733C42.5968 35.8187 42.0834 36.0839 41.4877 36.2691C40.8919 36.4542 40.2436 36.5468 39.5427 36.5468C39.1012 36.5468 38.6474 36.4898 38.1813 36.3759C37.7152 36.262 37.2754 36.0875 36.8619 35.8525C36.4484 35.6175 36.0734 35.322 35.737 34.9659C35.4006 34.6098 35.1448 34.1897 34.9695 33.7054C34.9345 33.5986 34.91 33.5114 34.8959 33.4437C34.8819 33.3761 34.8837 33.3191 34.9012 33.2728C34.9187 33.2265 34.9468 33.1856 34.9853 33.15C35.0238 33.1144 35.0782 33.0788 35.1483 33.0432L36.147 32.5732C36.3222 32.5019 36.4589 32.5108 36.557 32.5999C36.6551 32.6889 36.7322 32.7975 36.7883 32.9257C36.8934 33.2034 37.0599 33.4473 37.2877 33.6574C37.5155 33.8674 37.7625 34.0401 38.0288 34.1754C38.2952 34.3107 38.565 34.4122 38.8384 34.4799C39.1117 34.5475 39.3465 34.5813 39.5427 34.5813C39.8091 34.5813 40.1034 34.5422 40.4258 34.4638C40.7482 34.3855 41.0514 34.2644 41.3352 34.1007C41.6191 33.9369 41.8574 33.725 42.0501 33.4651C42.2429 33.2052 42.3392 32.8972 42.3392 32.5411C42.3392 32.1566 42.2481 31.8468 42.0659 31.6118C41.8837 31.3768 41.6471 31.1827 41.3563 31.0296C41.0654 30.8765 40.7395 30.7537 40.3785 30.6611C40.0176 30.5685 39.6584 30.4724 39.3009 30.3727C38.6702 30.2018 38.1077 29.9935 37.6136 29.7478C37.1195 29.5021 36.6989 29.2173 36.352 28.8933C36.0051 28.5692 35.7405 28.1989 35.5583 27.7823C35.376 27.3658 35.2849 26.8975 35.2849 26.3777C35.2849 25.808 35.3936 25.2881 35.6108 24.8181C35.8281 24.3481 36.1312 23.9458 36.5202 23.6111C36.9092 23.2764 37.3753 23.0165 37.9185 22.8313C38.4616 22.6462 39.0626 22.5536 39.7215 22.5536ZM50.8202 22.5536C51.3599 22.5536 51.8242 22.6034 52.2132 22.7031C52.6022 22.8028 52.9474 22.9506 53.2488 23.1464C53.5501 23.3423 53.827 23.5844 54.0793 23.8728C54.3316 24.1612 54.5944 24.4941 54.8678 24.8715C54.9519 25.014 54.9974 25.1368 55.0044 25.2401C55.0114 25.3433 54.9484 25.4448 54.8152 25.5445L53.9952 26.1747C53.834 26.2673 53.7113 26.2922 53.6272 26.2495C53.5431 26.2068 53.452 26.1249 53.3539 26.0038C53.1927 25.8115 53.035 25.6264 52.8808 25.4484C52.7266 25.2703 52.5514 25.1119 52.3551 24.973C52.1589 24.8342 51.9364 24.7238 51.6876 24.6419C51.4387 24.56 51.1426 24.519 50.7992 24.519C50.4908 24.519 50.1929 24.5546 49.9056 24.6259C49.6182 24.6971 49.3606 24.811 49.1329 24.9677C48.9051 25.1243 48.7228 25.322 48.5862 25.5605C48.4495 25.7991 48.3812 26.0821 48.3812 26.4097C48.3812 26.659 48.4653 26.8886 48.6335 27.0987C48.8017 27.3088 49.0155 27.4993 49.2748 27.6702C49.5341 27.8411 49.818 27.9871 50.1263 28.1081C50.4347 28.2292 50.7326 28.3253 51.02 28.3966C51.6858 28.5532 52.2938 28.7526 52.844 28.9947C53.3942 29.2369 53.8655 29.5253 54.258 29.86C54.6505 30.1947 54.9554 30.5845 55.1727 31.0296C55.3899 31.4747 55.4986 31.9785 55.4986 32.5411C55.4986 33.1607 55.3777 33.7179 55.1359 34.2128C54.8941 34.7077 54.5576 35.1279 54.1266 35.4733C53.6956 35.8187 53.1822 36.0839 52.5864 36.2691C51.9907 36.4542 51.3424 36.5468 50.6415 36.5468C50.1999 36.5468 49.7461 36.4898 49.28 36.3759C48.814 36.262 48.3742 36.0875 47.9606 35.8525C47.5471 35.6175 47.1722 35.322 46.8357 34.9659C46.4993 34.6098 46.2435 34.1897 46.0683 33.7054C46.0332 33.5986 46.0087 33.5114 45.9947 33.4437C45.9807 33.3761 45.9824 33.3191 45.9999 33.2728C46.0175 33.2265 46.0455 33.1856 46.0841 33.15C46.1226 33.1144 46.1769 33.0788 46.247 33.0432L47.2458 32.5732C47.421 32.5019 47.5576 32.5108 47.6558 32.5999C47.7539 32.6889 47.831 32.7975 47.8871 32.9257C47.9922 33.2034 48.1586 33.4473 48.3864 33.6574C48.6142 33.8674 48.8613 34.0401 49.1276 34.1754C49.3939 34.3107 49.6638 34.4122 49.9371 34.4799C50.2104 34.5475 50.4452 34.5813 50.6415 34.5813C50.9078 34.5813 51.2022 34.5422 51.5246 34.4638C51.847 34.3855 52.1501 34.2644 52.434 34.1007C52.7178 33.9369 52.9561 33.725 53.1489 33.4651C53.3416 33.2052 53.438 32.8972 53.438 32.5411C53.438 32.1566 53.3469 31.8468 53.1647 31.6118C52.9824 31.3768 52.7459 31.1827 52.455 31.0296C52.1641 30.8765 51.8382 30.7537 51.4773 30.6611C51.1163 30.5685 50.7571 30.4724 50.3997 30.3727C49.7689 30.2018 49.2065 29.9935 48.7123 29.7478C48.2182 29.5021 47.7977 29.2173 47.4508 28.8933C47.1038 28.5692 46.8392 28.1989 46.657 27.7823C46.4748 27.3658 46.3837 26.8975 46.3837 26.3777C46.3837 25.808 46.4923 25.2881 46.7096 24.8181C46.9269 24.3481 47.23 23.9458 47.619 23.6111C48.0079 23.2764 48.474 23.0165 49.0172 22.8313C49.5604 22.6462 50.1614 22.5536 50.8202 22.5536ZM13.2108 20.3936C13.9091 20.3936 14.5562 20.5254 15.1522 20.789C15.7481 21.0526 16.2648 21.4107 16.7021 21.8631C17.1394 22.3156 17.4814 22.8429 17.7283 23.4449C17.9751 24.047 18.0986 24.683 18.0986 25.3527C18.0986 26.0083 17.9769 26.6317 17.7336 27.2231C17.4902 27.8145 17.1517 28.3364 16.7179 28.7889C16.2842 29.2413 15.7728 29.6012 15.1839 29.8684C14.595 30.1356 13.9549 30.2692 13.2637 30.2692H9.50799V35.7948C9.50799 36.1083 9.35283 36.2651 9.04249 36.2651H7.93164C7.6213 36.2651 7.46614 36.1083 7.46614 35.7948V20.9066C7.46614 20.5646 7.62836 20.3936 7.9528 20.3936H13.2108ZM26.0982 24.4319C25.4302 24.4319 24.8031 24.5681 24.2169 24.8406C23.6306 25.1131 23.119 25.4788 22.682 25.9377C22.2449 26.3966 21.9003 26.9326 21.648 27.5457C21.3958 28.1588 21.2696 28.8023 21.2696 29.4763C21.2696 30.1432 21.3958 30.785 21.648 31.4016C21.9003 32.0183 22.2449 32.5615 22.682 33.0311C23.119 33.5008 23.6306 33.8755 24.2169 34.1551C24.8031 34.4348 25.4302 34.5746 26.0982 34.5746C26.7662 34.5746 27.3968 34.4348 27.9902 34.1551C28.5835 33.8755 29.1005 33.5008 29.5411 33.0311C29.9816 32.5615 30.3298 32.0183 30.5857 31.4016C30.8415 30.785 30.9694 30.1432 30.9694 29.4763C30.9694 28.8023 30.8415 28.1588 30.5857 27.5457C30.3298 26.9326 29.9816 26.3966 29.5411 25.9377C29.1005 25.4788 28.5835 25.1131 27.9902 24.8406C27.3968 24.5681 26.7662 24.4319 26.0982 24.4319ZM13.169 22.3658H9.42475V28.1884H13.169C13.5541 28.1884 13.9214 28.1097 14.2709 27.9521C14.6203 27.7945 14.927 27.5815 15.1909 27.3129C15.4547 27.0443 15.6634 26.7346 15.8167 26.3836C15.97 26.0327 16.0467 25.6638 16.0467 25.2771C16.0467 24.8975 15.9718 24.5323 15.822 24.1813C15.6723 23.8304 15.4672 23.5206 15.2069 23.252C14.9466 22.9835 14.6417 22.7686 14.2922 22.6075C13.9428 22.4463 13.5684 22.3658 13.169 22.3658Z" fill="#16688A"/>
</svg>
