<svg width="37" height="36" viewBox="0 0 37 36" fill="none" xmlns="http://www.w3.org/2000/svg">
<path d="M6.52879 12.888C6.52879 13.1859 6.56268 13.4754 6.63046 13.7567C6.69825 14.038 6.80637 14.2912 6.95485 14.5162C7.10333 14.7413 7.29699 14.9216 7.53584 15.0573C7.77469 15.193 8.06519 15.2608 8.40733 15.2608C8.74947 15.2608 9.03996 15.193 9.27881 15.0573C9.51767 14.9216 9.71133 14.7413 9.85981 14.5162C10.0083 14.2912 10.1164 14.038 10.1842 13.7567C10.252 13.4754 10.2859 13.1859 10.2859 12.888C10.2859 12.5769 10.252 12.2758 10.1842 11.9845C10.1164 11.6933 10.0083 11.4335 9.85981 11.2052C9.71133 10.9768 9.51767 10.7948 9.27881 10.6591C9.03996 10.5234 8.74947 10.4556 8.40733 10.4556C8.06519 10.4556 7.77469 10.5234 7.53584 10.6591C7.29699 10.7948 7.10333 10.9768 6.95485 11.2052C6.80637 11.4335 6.69825 11.6933 6.63046 11.9845C6.56268 12.2758 6.52879 12.5769 6.52879 12.888ZM5.00049 12.861C5.00049 12.3304 5.07886 11.8379 5.23561 11.3835C5.39236 10.9292 5.61769 10.5329 5.91159 10.1946C6.2055 9.85633 6.56634 9.59102 6.99414 9.39867C7.42193 9.20631 7.90361 9.11014 8.43917 9.11014C8.98126 9.11014 9.46456 9.20631 9.88909 9.39867C10.3136 9.59102 10.6728 9.85633 10.9667 10.1946C11.2606 10.5329 11.486 10.9292 11.6427 11.3835C11.7995 11.8379 11.8778 12.3304 11.8778 12.861C11.8778 13.3784 11.7995 13.8609 11.6427 14.3086C11.486 14.7563 11.2606 15.146 10.9667 15.4777C10.6728 15.8093 10.3136 16.0696 9.88909 16.2587C9.46456 16.4477 8.98126 16.5422 8.43917 16.5422C7.90361 16.5422 7.42193 16.4477 6.99414 16.2587C6.56634 16.0696 6.2055 15.8093 5.91159 15.4777C5.61769 15.146 5.39236 14.7563 5.23561 14.3086C5.07886 13.8609 5.00049 13.3784 5.00049 12.861ZM16.3354 13.8045C16.3354 13.5939 16.3158 13.3915 16.2766 13.1973C16.2374 13.0032 16.1705 12.8321 16.0758 12.684C15.9811 12.5359 15.8586 12.4158 15.7084 12.3237C15.5582 12.2316 15.3688 12.1855 15.1402 12.1855C14.9116 12.1855 14.7189 12.2316 14.5622 12.3237C14.4054 12.4158 14.2797 12.5376 14.185 12.6889C14.0903 12.8403 14.0217 13.0131 13.9793 13.2072C13.9368 13.4014 13.9156 13.6037 13.9156 13.8143C13.9156 14.0118 13.9384 14.2092 13.9842 14.4066C14.0299 14.6041 14.1034 14.7801 14.2046 14.9348C14.3058 15.0894 14.4332 15.2145 14.5867 15.3099C14.7401 15.4053 14.9247 15.453 15.1402 15.453C15.3688 15.453 15.5598 15.407 15.7133 15.3148C15.8668 15.2227 15.9892 15.0993 16.0807 14.9447C16.1721 14.79 16.2374 14.6139 16.2766 14.4165C16.3158 14.2191 16.3354 14.0151 16.3354 13.8045ZM16.3488 15.7555H16.3292C16.1658 16.0343 15.9517 16.2352 15.6869 16.358C15.4222 16.4808 15.1231 16.5422 14.7897 16.5422C14.4105 16.5422 14.0771 16.4675 13.7894 16.3182C13.5018 16.1688 13.2648 15.9663 13.0785 15.7107C12.8922 15.4551 12.7516 15.1613 12.6568 14.8294C12.562 14.4974 12.5146 14.1522 12.5146 13.7937C12.5146 13.4484 12.562 13.1148 12.6568 12.7928C12.7516 12.4708 12.8922 12.187 13.0785 11.9414C13.2648 11.6957 13.4985 11.4982 13.7796 11.3488C14.0607 11.1995 14.3876 11.1248 14.7602 11.1248C15.061 11.1248 15.347 11.1895 15.6183 11.319C15.8896 11.4484 16.1037 11.6393 16.2606 11.8916H16.2802V9.30235H17.6727V16.4128H16.3488V15.7555ZM22.3212 13.8045C22.3212 13.5939 22.3016 13.3915 22.2625 13.1973C22.2233 13.0032 22.1563 12.8321 22.0616 12.684C21.9669 12.5359 21.8445 12.4158 21.6942 12.3237C21.544 12.2316 21.3546 12.1855 21.126 12.1855C20.8974 12.1855 20.7048 12.2316 20.548 12.3237C20.3913 12.4158 20.2655 12.5376 20.1708 12.6889C20.0761 12.8403 20.0076 13.0131 19.9651 13.2072C19.9227 13.4014 19.9014 13.6037 19.9014 13.8143C19.9014 14.0118 19.9243 14.2092 19.97 14.4066C20.0157 14.6041 20.0892 14.7801 20.1904 14.9348C20.2917 15.0894 20.419 15.2145 20.5725 15.3099C20.726 15.4053 20.9105 15.453 21.126 15.453C21.3546 15.453 21.5457 15.407 21.6991 15.3148C21.8526 15.2227 21.9751 15.0993 22.0665 14.9447C22.158 14.79 22.2233 14.6139 22.2625 14.4165C22.3016 14.2191 22.3212 14.0151 22.3212 13.8045ZM22.3347 15.7555H22.3151C22.1516 16.0343 21.9375 16.2352 21.6728 16.358C21.408 16.4808 21.1089 16.5422 20.7755 16.5422C20.3963 16.5422 20.0629 16.4675 19.7753 16.3182C19.4876 16.1688 19.2507 15.9663 19.0643 15.7107C18.878 15.4551 18.7375 15.1613 18.6427 14.8294C18.5479 14.4974 18.5005 14.1522 18.5005 13.7937C18.5005 13.4484 18.5479 13.1148 18.6427 12.7928C18.7375 12.4708 18.878 12.187 19.0643 11.9414C19.2507 11.6957 19.4844 11.4982 19.7655 11.3488C20.0466 11.1995 20.3735 11.1248 20.7461 11.1248C21.0468 11.1248 21.3328 11.1895 21.6041 11.319C21.8754 11.4484 22.0895 11.6393 22.2464 11.8916H22.266V9.30235H23.6585V16.4128H22.3347V15.7555ZM24.7411 9.30235H26.142V16.4141H24.7411V9.30235ZM30.5995 13.2747C30.5352 12.9182 30.4211 12.6476 30.257 12.4627C30.093 12.2779 29.8438 12.1855 29.5093 12.1855C29.2906 12.1855 29.1089 12.2234 28.9641 12.2994C28.8194 12.3753 28.7036 12.4693 28.6168 12.5816C28.53 12.6938 28.4689 12.8126 28.4335 12.938C28.3981 13.0634 28.3772 13.1757 28.3708 13.2747H30.5995ZM29.5442 11.0963C29.9733 11.0963 30.3471 11.1804 30.6656 11.3486C30.9842 11.5168 31.2458 11.7427 31.4506 12.0263C31.6554 12.3099 31.8033 12.633 31.8943 12.9958C31.9853 13.3585 32.0178 13.7378 31.9918 14.1335H28.3545C28.374 14.5886 28.4878 14.9183 28.6958 15.1228C28.9039 15.3273 29.2029 15.4295 29.593 15.4295C29.8725 15.4295 30.113 15.3586 30.3146 15.2168C30.5161 15.075 30.6396 14.9249 30.6851 14.7667H31.9041C31.709 15.38 31.41 15.8186 31.0069 16.0824C30.6039 16.3463 30.1163 16.4782 29.5442 16.4782C29.1476 16.4782 28.7901 16.4139 28.4715 16.2852C28.153 16.1566 27.8832 15.9736 27.6622 15.7362C27.4411 15.4987 27.2705 15.2151 27.1502 14.8854C27.03 14.5556 26.9698 14.1929 26.9698 13.7971C26.9698 13.4146 27.0316 13.0584 27.1551 12.7287C27.2786 12.3989 27.4541 12.1136 27.6817 11.8729C27.9092 11.6322 28.1806 11.4426 28.4959 11.3041C28.8112 11.1656 29.1606 11.0963 29.5442 11.0963Z" fill="#0A3040"/>
<path d="M17.7006 20.0823C18.1597 20.0823 18.586 20.1695 18.9795 20.3439C19.373 20.5183 19.7182 20.7575 20.015 21.0615V20.4294C20.015 20.2774 20.091 20.2014 20.2428 20.2014H20.7761C20.9384 20.2014 21.0195 20.2774 21.0195 20.4294V26.5584C21.0195 26.6275 20.997 26.6827 20.9522 26.7242C20.9073 26.7656 20.8538 26.7863 20.7917 26.7863H20.2532C20.1807 26.7863 20.1229 26.7639 20.0797 26.719C20.0366 26.6741 20.015 26.6205 20.015 26.5584V25.9108C19.7182 26.2147 19.373 26.4539 18.9795 26.6283C18.586 26.8027 18.1597 26.89 17.7006 26.89C17.3934 26.89 17.0957 26.8494 16.8075 26.7682C16.5193 26.687 16.2492 26.5713 15.9972 26.4211C15.7452 26.2708 15.5157 26.0921 15.3086 25.8849C15.1014 25.6776 14.9228 25.4471 14.7727 25.1932C14.6225 24.9394 14.5069 24.6682 14.4258 24.3798C14.3447 24.0914 14.3041 23.7918 14.3041 23.4809C14.3041 23.1701 14.3447 22.8705 14.4258 22.5821C14.5069 22.2936 14.6225 22.0234 14.7727 21.7712C14.9228 21.5191 15.1014 21.2894 15.3086 21.0822C15.5157 20.8749 15.7452 20.6971 15.9972 20.5486C16.2492 20.4 16.5184 20.2852 16.8049 20.204C17.0914 20.1229 17.39 20.0823 17.7006 20.0823ZM24.3245 20.0823C24.587 20.0823 24.8129 20.1065 25.0022 20.155C25.1914 20.2035 25.3594 20.2754 25.506 20.3707C25.6526 20.466 25.7873 20.5838 25.91 20.7241C26.0328 20.8644 26.1606 21.0263 26.2936 21.21C26.3345 21.2792 26.3567 21.339 26.3601 21.3892C26.3635 21.4395 26.3328 21.4888 26.2681 21.5374L25.8691 21.844C25.7907 21.889 25.731 21.9011 25.6901 21.8803C25.6492 21.8595 25.6049 21.8197 25.5571 21.7608C25.4787 21.6673 25.402 21.5772 25.327 21.4906C25.2519 21.404 25.1667 21.3269 25.0712 21.2593C24.9758 21.1918 24.8675 21.1381 24.7464 21.0982C24.6254 21.0584 24.4813 21.0385 24.3143 21.0385C24.1642 21.0385 24.0193 21.0558 23.8795 21.0904C23.7397 21.1251 23.6144 21.1805 23.5036 21.2567C23.3928 21.3329 23.3041 21.4291 23.2376 21.5451C23.1711 21.6612 23.1379 21.7989 23.1379 21.9583C23.1379 22.0795 23.1788 22.1913 23.2607 22.2935C23.3425 22.3957 23.4465 22.4883 23.5726 22.5715C23.6988 22.6546 23.8369 22.7257 23.9869 22.7846C24.137 22.8435 24.2819 22.8902 24.4217 22.9249C24.7456 23.0011 25.0414 23.0981 25.3091 23.2159C25.5767 23.3337 25.806 23.474 25.997 23.6368C26.1879 23.7997 26.3362 23.9893 26.4419 24.2059C26.5477 24.4224 26.6005 24.6675 26.6005 24.9412C26.6005 25.2426 26.5417 25.5137 26.424 25.7545C26.3064 25.9953 26.1427 26.1997 25.933 26.3677C25.7233 26.5357 25.4736 26.6648 25.1838 26.7548C24.8939 26.8449 24.5785 26.89 24.2375 26.89C24.0227 26.89 23.802 26.8622 23.5752 26.8068C23.3485 26.7514 23.1345 26.6665 22.9333 26.5522C22.7321 26.4378 22.5497 26.2941 22.3861 26.1208C22.2224 25.9476 22.0979 25.7432 22.0127 25.5076C21.9956 25.4557 21.9837 25.4132 21.9769 25.3803C21.9701 25.3474 21.9709 25.3197 21.9794 25.2972C21.988 25.2746 22.0016 25.2547 22.0204 25.2374C22.0391 25.2201 22.0655 25.2028 22.0996 25.1854L22.5855 24.9568C22.6708 24.9221 22.7373 24.9265 22.785 24.9698C22.8327 25.0131 22.8702 25.0659 22.8975 25.1283C22.9487 25.2634 23.0296 25.382 23.1405 25.4842C23.2513 25.5865 23.3715 25.6705 23.501 25.7363C23.6306 25.8021 23.7619 25.8515 23.8949 25.8844C24.0278 25.9173 24.1421 25.9338 24.2375 25.9338C24.3671 25.9338 24.5103 25.9147 24.6672 25.8766C24.824 25.8385 24.9715 25.7796 25.1096 25.6999C25.2477 25.6202 25.3636 25.5172 25.4574 25.3907C25.5511 25.2643 25.598 25.1144 25.598 24.9412C25.598 24.7541 25.5537 24.6034 25.4651 24.4891C25.3764 24.3748 25.2613 24.2803 25.1198 24.2059C24.9783 24.1314 24.8198 24.0716 24.6442 24.0266C24.4686 23.9815 24.2938 23.9348 24.1199 23.8863C23.813 23.8031 23.5394 23.7018 23.299 23.5823C23.0586 23.4627 22.854 23.3242 22.6853 23.1665C22.5165 23.0089 22.3878 22.8287 22.2991 22.6261C22.2105 22.4234 22.1661 22.1956 22.1661 21.9427C22.1661 21.6655 22.219 21.4126 22.3247 21.184C22.4304 20.9553 22.5778 20.7596 22.7671 20.5967C22.9563 20.4339 23.1831 20.3075 23.4473 20.2174C23.7116 20.1273 24.004 20.0823 24.3245 20.0823ZM29.724 20.0823C29.9866 20.0823 30.2125 20.1065 30.4017 20.155C30.591 20.2035 30.7589 20.2754 30.9055 20.3707C31.0521 20.466 31.1868 20.5838 31.3096 20.7241C31.4323 20.8644 31.5602 21.0263 31.6931 21.21C31.7341 21.2792 31.7562 21.339 31.7596 21.3892C31.763 21.4395 31.7324 21.4888 31.6676 21.5374L31.2686 21.844C31.1902 21.889 31.1305 21.9011 31.0896 21.8803C31.0487 21.8595 31.0044 21.8197 30.9566 21.7608C30.8782 21.6673 30.8015 21.5772 30.7265 21.4906C30.6515 21.404 30.5662 21.3269 30.4708 21.2593C30.3753 21.1918 30.267 21.1381 30.146 21.0982C30.0249 21.0584 29.8809 21.0385 29.7138 21.0385C29.5638 21.0385 29.4188 21.0558 29.279 21.0904C29.1392 21.1251 29.0139 21.1805 28.9031 21.2567C28.7923 21.3329 28.7037 21.4291 28.6372 21.5451C28.5707 21.6612 28.5374 21.7989 28.5374 21.9583C28.5374 22.0795 28.5783 22.1913 28.6602 22.2935C28.742 22.3957 28.846 22.4883 28.9722 22.5715C29.0983 22.6546 29.2364 22.7257 29.3865 22.7846C29.5365 22.8435 29.6814 22.8902 29.8212 22.9249C30.1451 23.0011 30.4409 23.0981 30.7086 23.2159C30.9763 23.3337 31.2056 23.474 31.3965 23.6368C31.5875 23.7997 31.7358 23.9893 31.8415 24.2059C31.9472 24.4224 32 24.6675 32 24.9412C32 25.2426 31.9412 25.5137 31.8236 25.7545C31.7059 25.9953 31.5423 26.1997 31.3326 26.3677C31.1229 26.5357 30.8731 26.6648 30.5833 26.7548C30.2934 26.8449 29.9781 26.89 29.6371 26.89C29.4223 26.89 29.2015 26.8622 28.9747 26.8068C28.748 26.7514 28.534 26.6665 28.3328 26.5522C28.1317 26.4378 27.9492 26.2941 27.7856 26.1208C27.6219 25.9476 27.4975 25.7432 27.4122 25.5076C27.3952 25.4557 27.3832 25.4132 27.3764 25.3803C27.3696 25.3474 27.3704 25.3197 27.379 25.2972C27.3875 25.2746 27.4011 25.2547 27.4199 25.2374C27.4386 25.2201 27.4651 25.2028 27.4992 25.1854L27.9851 24.9568C28.0703 24.9221 28.1368 24.9265 28.1845 24.9698C28.2323 25.0131 28.2698 25.0659 28.297 25.1283C28.3482 25.2634 28.4292 25.382 28.54 25.4842C28.6508 25.5865 28.771 25.6705 28.9006 25.7363C29.0301 25.8021 29.1614 25.8515 29.2944 25.8844C29.4274 25.9173 29.5416 25.9338 29.6371 25.9338C29.7666 25.9338 29.9099 25.9147 30.0667 25.8766C30.2235 25.8385 30.371 25.7796 30.5091 25.6999C30.6472 25.6202 30.7631 25.5172 30.8569 25.3907C30.9507 25.2643 30.9976 25.1144 30.9976 24.9412C30.9976 24.7541 30.9532 24.6034 30.8646 24.4891C30.7759 24.3748 30.6609 24.2803 30.5193 24.2059C30.3778 24.1314 30.2193 24.0716 30.0437 24.0266C29.8681 23.9815 29.6933 23.9348 29.5194 23.8863C29.2126 23.8031 28.9389 23.7018 28.6985 23.5823C28.4582 23.4627 28.2536 23.3242 28.0848 23.1665C27.916 23.0089 27.7873 22.8287 27.6986 22.6261C27.61 22.4234 27.5657 22.1956 27.5657 21.9427C27.5657 21.6655 27.6185 21.4126 27.7242 21.184C27.8299 20.9553 27.9774 20.7596 28.1666 20.5967C28.3559 20.4339 28.5826 20.3075 28.8469 20.2174C29.1111 20.1273 29.4035 20.0823 29.724 20.0823ZM11.4271 19.0314C11.7668 19.0314 12.0816 19.0956 12.3716 19.2238C12.6615 19.3521 12.9128 19.5263 13.1256 19.7464C13.3383 19.9665 13.5047 20.223 13.6248 20.5159C13.7449 20.8088 13.805 21.1182 13.805 21.4441C13.805 21.763 13.7458 22.0663 13.6274 22.354C13.509 22.6417 13.3443 22.8956 13.1333 23.1157C12.9223 23.3359 12.6735 23.5109 12.387 23.6409C12.1005 23.7709 11.7891 23.8359 11.4528 23.8359H9.62568V26.5241C9.62568 26.6766 9.55019 26.7529 9.39922 26.7529H8.85879C8.70781 26.7529 8.63232 26.6766 8.63232 26.5241V19.281C8.63232 19.1146 8.71124 19.0314 8.86908 19.0314H11.4271ZM17.6968 20.9961C17.3718 20.9961 17.0667 21.0623 16.7815 21.1949C16.4963 21.3275 16.2474 21.5054 16.0348 21.7286C15.8222 21.9519 15.6545 22.2127 15.5318 22.5109C15.4091 22.8092 15.3477 23.1223 15.3477 23.4502C15.3477 23.7746 15.4091 24.0868 15.5318 24.3868C15.6545 24.6869 15.8222 24.9511 16.0348 25.1796C16.2474 25.4081 16.4963 25.5904 16.7815 25.7264C17.0667 25.8625 17.3718 25.9305 17.6968 25.9305C18.0218 25.9305 18.3286 25.8625 18.6172 25.7264C18.9059 25.5904 19.1574 25.4081 19.3717 25.1796C19.5861 24.9511 19.7555 24.6869 19.8799 24.3868C20.0044 24.0868 20.0666 23.7746 20.0666 23.4502C20.0666 23.1223 20.0044 22.8092 19.8799 22.5109C19.7555 22.2127 19.5861 21.9519 19.3717 21.7286C19.1574 21.5054 18.9059 21.3275 18.6172 21.1949C18.3286 21.0623 18.0218 20.9961 17.6968 20.9961ZM11.4067 19.9909H9.58518V22.8236H11.4067C11.5941 22.8236 11.7728 22.7853 11.9428 22.7086C12.1128 22.632 12.262 22.5283 12.3904 22.3977C12.5188 22.267 12.6203 22.1163 12.6949 21.9456C12.7695 21.7749 12.8067 21.5954 12.8067 21.4073C12.8067 21.2226 12.7703 21.0449 12.6975 20.8742C12.6246 20.7034 12.5248 20.5527 12.3982 20.4221C12.2716 20.2914 12.1232 20.1869 11.9532 20.1085C11.7832 20.0301 11.601 19.9909 11.4067 19.9909Z" fill="#16688A"/>
</svg>
