<svg xmlns="http://www.w3.org/2000/svg" width="18px" height="18px" viewBox="0 0 19 18"><path d="M9.065 9.515c2.245 0 4.064-2.13 4.064-4.757C13.13 1.114 11.31 0 9.065 0 6.82 0 5 1.114 5 4.758c0 2.627 1.82 4.757 4.065 4.757M18.04 16.518l-2.05-4.62a1.027 1.027 0 0 0-.464-.493l-3.183-1.657a.205.205 0 0 0-.218.019c-.9.68-1.958 1.04-3.06 1.04-1.103 0-2.16-.36-3.06-1.04a.205.205 0 0 0-.22-.019l-3.182 1.657c-.205.107-.37.282-.463.493l-2.051 4.62a1.02 1.02 0 0 0 .077.975c.19.292.511.466.86.466h16.077c.349 0 .67-.174.86-.466.19-.292.219-.657.077-.975" fill="currentColor" fill-rule="evenodd"></path></svg>