<svg width="19" height="19" viewBox="0 0 19 19" fill="none" xmlns="http://www.w3.org/2000/svg">
<path fill-rule="evenodd" clip-rule="evenodd" d="M9.50059 3.00735C6.00714 3.00735 3.16518 5.8493 3.16518 9.34275C3.16518 12.8362 6.00714 15.6782 9.50059 15.6782C12.994 15.6782 15.836 12.8362 15.836 9.34275C15.836 5.8493 12.994 3.00735 9.50059 3.00735ZM9.50059 16.7341C5.42481 16.7341 2.10928 13.4185 2.10928 9.34275C2.10928 5.26697 5.42481 1.95145 9.50059 1.95145C13.5764 1.95145 16.8919 5.26697 16.8919 9.34275C16.8919 13.4185 13.5764 16.7341 9.50059 16.7341Z" fill="black"/>
<path fill-rule="evenodd" clip-rule="evenodd" d="M1.85059 9.34275C1.85059 13.5614 5.28194 16.9927 9.50059 16.9927C13.7192 16.9927 17.1506 13.5614 17.1506 9.34275C17.1506 5.1241 13.7192 1.69275 9.50059 1.69275C5.28194 1.69275 1.85059 5.1241 1.85059 9.34275ZM9.50059 16.4754C5.56768 16.4754 2.36798 13.2757 2.36798 9.34275C2.36798 5.40985 5.56768 2.21014 9.50059 2.21014C13.4335 2.21014 16.6332 5.40985 16.6332 9.34275C16.6332 13.2757 13.4335 16.4754 9.50059 16.4754ZM9.50059 15.4195C6.15001 15.4195 3.42388 12.6933 3.42388 9.34275C3.42388 5.99218 6.15001 3.26604 9.50059 3.26604C12.8512 3.26604 15.5773 5.99218 15.5773 9.34275C15.5773 12.6933 12.8512 15.4195 9.50059 15.4195ZM2.90649 9.34275C2.90649 12.9791 5.86426 15.9368 9.50059 15.9368C13.1369 15.9368 16.0947 12.9791 16.0947 9.34275C16.0947 5.70643 13.1369 2.74865 9.50059 2.74865C5.86426 2.74865 2.90649 5.70643 2.90649 9.34275Z" fill="black"/>
<path d="M10.6979 4.74677C9.62356 4.3279 8.72432 4.96545 8.47323 5.21654C8.3995 5.29027 7.19334 6.38073 7.03052 9.51929C6.89949 12.0451 8.02479 13.4951 8.2553 13.7538C8.47984 14.0059 9.14943 14.5319 10.459 14.1106C10.6212 14.0585 10.8582 13.8702 10.8609 13.7632C10.8621 13.7157 10.4527 11.8535 10.4342 11.7968C10.4157 11.7402 10.3883 11.6936 10.352 11.6573C10.3001 11.6054 10.1964 11.5794 10.0407 11.5795C9.88508 11.5794 9.72913 11.5927 9.57285 11.6193C9.4165 11.6459 9.26318 11.6618 9.1127 11.667C8.96235 11.6723 8.86371 11.6514 8.81704 11.6047C8.70118 11.4783 8.37175 10.94 8.5031 9.47977C8.63439 8.01926 8.83055 7.44864 8.85443 7.39886C8.87838 7.34901 8.90263 7.31193 8.92719 7.28737C8.97637 7.2382 9.07607 7.21229 9.22642 7.20977C9.37676 7.20737 9.96833 7.28506 10.1242 7.27713C10.28 7.26909 10.3852 7.23777 10.4398 7.18313C10.478 7.14495 10.5079 7.09701 10.5292 7.03934C10.5507 6.9816 11.082 5.11935 11.0827 5.07423C11.0843 4.95166 10.8517 4.80674 10.6979 4.74677Z" fill="black"/>
</svg>
