<svg width="119" height="15" viewBox="0 0 119 15" fill="none" xmlns="http://www.w3.org/2000/svg">
<path d="M2.01794 7.11621V11.0127H0.705444V1.05957H4.37634C5.46554 1.05957 6.31775 1.33757 6.93298 1.89355C7.55277 2.44954 7.86267 3.18555 7.86267 4.10156C7.86267 5.06771 7.55961 5.81283 6.95349 6.33691C6.35193 6.85645 5.48832 7.11621 4.36267 7.11621H2.01794ZM2.01794 6.04297H4.37634C5.07817 6.04297 5.61593 5.87891 5.98962 5.55078C6.36332 5.2181 6.55017 4.73958 6.55017 4.11523C6.55017 3.52279 6.36332 3.04883 5.98962 2.69336C5.61593 2.33789 5.10323 2.15332 4.45154 2.13965H2.01794V6.04297Z" fill="black" fill-opacity="0.9"/>
<path d="M8.90857 7.24609C8.90857 6.52148 9.04985 5.86979 9.3324 5.29102C9.61951 4.71224 10.016 4.26562 10.5219 3.95117C11.0323 3.63672 11.6133 3.47949 12.265 3.47949C13.2722 3.47949 14.0857 3.82812 14.7054 4.52539C15.3298 5.22266 15.642 6.15006 15.642 7.30762V7.39648C15.642 8.11654 15.503 8.76367 15.225 9.33789C14.9515 9.90755 14.5573 10.3519 14.0424 10.6709C13.5319 10.9899 12.9441 11.1494 12.2787 11.1494C11.2761 11.1494 10.4626 10.8008 9.83826 10.1035C9.21846 9.40625 8.90857 8.4834 8.90857 7.33496V7.24609ZM10.1801 7.39648C10.1801 8.2168 10.3692 8.87533 10.7474 9.37207C11.1302 9.86882 11.6407 10.1172 12.2787 10.1172C12.9213 10.1172 13.4317 9.86654 13.8099 9.36523C14.1882 8.85938 14.3773 8.15299 14.3773 7.24609C14.3773 6.4349 14.1836 5.77865 13.7963 5.27734C13.4135 4.77148 12.903 4.51855 12.265 4.51855C11.6407 4.51855 11.1371 4.76693 10.7543 5.26367C10.3715 5.76042 10.1801 6.47135 10.1801 7.39648Z" fill="black" fill-opacity="0.9"/>
<path d="M23.7767 9.26953L25.1986 3.61621H26.4633L24.3099 11.0127H23.2845L21.4867 5.40723L19.7367 11.0127H18.7113L16.5648 3.61621H17.8226L19.2787 9.15332L21.0013 3.61621H22.0199L23.7767 9.26953Z" fill="black" fill-opacity="0.9"/>
<path d="M30.8246 11.1494C29.822 11.1494 29.0062 10.8213 28.3773 10.165C27.7484 9.50423 27.434 8.6224 27.434 7.51953V7.28711C27.434 6.55339 27.573 5.89941 27.851 5.3252C28.1335 4.74642 28.5254 4.29525 29.0267 3.97168C29.5326 3.64355 30.0795 3.47949 30.6674 3.47949C31.6289 3.47949 32.3763 3.79622 32.9095 4.42969C33.4427 5.06315 33.7094 5.97005 33.7094 7.15039V7.67676H28.6986C28.7168 8.40592 28.9288 8.99609 29.3344 9.44727C29.7445 9.89388 30.264 10.1172 30.8929 10.1172C31.3396 10.1172 31.7178 10.026 32.0277 9.84375C32.3376 9.66146 32.6088 9.41992 32.8412 9.11914L33.6136 9.7207C32.9939 10.6732 32.0642 11.1494 30.8246 11.1494ZM30.6674 4.51855C30.1569 4.51855 29.7286 4.7054 29.3822 5.0791C29.0358 5.44824 28.8217 5.96777 28.7396 6.6377H32.4447V6.54199C32.4082 5.89941 32.2351 5.40267 31.9252 5.05176C31.6153 4.69629 31.196 4.51855 30.6674 4.51855Z" fill="black" fill-opacity="0.9"/>
<path d="M38.7543 4.75098C38.5629 4.71908 38.3555 4.70312 38.1322 4.70312C37.3028 4.70312 36.7399 5.05631 36.4437 5.7627V11.0127H35.1791V3.61621H36.4095L36.4301 4.4707C36.8448 3.8099 37.4327 3.47949 38.1937 3.47949C38.4398 3.47949 38.6267 3.51139 38.7543 3.5752V4.75098Z" fill="black" fill-opacity="0.9"/>
<path d="M42.8558 11.1494C41.8532 11.1494 41.0375 10.8213 40.4086 10.165C39.7797 9.50423 39.4652 8.6224 39.4652 7.51953V7.28711C39.4652 6.55339 39.6042 5.89941 39.8822 5.3252C40.1648 4.74642 40.5567 4.29525 41.058 3.97168C41.5638 3.64355 42.1107 3.47949 42.6986 3.47949C43.6602 3.47949 44.4076 3.79622 44.9408 4.42969C45.474 5.06315 45.7406 5.97005 45.7406 7.15039V7.67676H40.7299C40.7481 8.40592 40.96 8.99609 41.3656 9.44727C41.7758 9.89388 42.2953 10.1172 42.9242 10.1172C43.3708 10.1172 43.7491 10.026 44.059 9.84375C44.3689 9.66146 44.64 9.41992 44.8724 9.11914L45.6449 9.7207C45.0251 10.6732 44.0954 11.1494 42.8558 11.1494ZM42.6986 4.51855C42.1882 4.51855 41.7598 4.7054 41.4135 5.0791C41.0671 5.44824 40.8529 5.96777 40.7709 6.6377H44.476V6.54199C44.4395 5.89941 44.2663 5.40267 43.9564 5.05176C43.6465 4.69629 43.2273 4.51855 42.6986 4.51855Z" fill="black" fill-opacity="0.9"/>
<path d="M46.9027 7.25293C46.9027 6.11816 47.1716 5.20671 47.7094 4.51855C48.2471 3.82585 48.9512 3.47949 49.8217 3.47949C50.6875 3.47949 51.3734 3.77572 51.8793 4.36816V0.512695H53.1439V11.0127H51.9818L51.9203 10.2197C51.4144 10.8395 50.7103 11.1494 49.808 11.1494C48.9512 11.1494 48.2517 10.7985 47.7094 10.0967C47.1716 9.39486 46.9027 8.47884 46.9027 7.34863V7.25293ZM48.1674 7.39648C48.1674 8.23503 48.3405 8.89128 48.6869 9.36523C49.0332 9.83919 49.5118 10.0762 50.1224 10.0762C50.9245 10.0762 51.5101 9.71615 51.8793 8.99609V5.59863C51.501 4.90137 50.92 4.55273 50.1361 4.55273C49.5163 4.55273 49.0332 4.79199 48.6869 5.27051C48.3405 5.74902 48.1674 6.45768 48.1674 7.39648Z" fill="black" fill-opacity="0.9"/>
<path d="M64.847 7.39648C64.847 8.52669 64.5873 9.43587 64.0677 10.124C63.5482 10.8076 62.851 11.1494 61.976 11.1494C61.0417 11.1494 60.3194 10.819 59.809 10.1582L59.7474 11.0127H58.5853V0.512695H59.85V4.42969C60.3604 3.79622 61.0645 3.47949 61.9623 3.47949C62.8601 3.47949 63.5642 3.81901 64.0746 4.49805C64.5896 5.17708 64.847 6.10677 64.847 7.28711V7.39648ZM63.5824 7.25293C63.5824 6.3916 63.4161 5.72624 63.0834 5.25684C62.7507 4.78744 62.2722 4.55273 61.6478 4.55273C60.8138 4.55273 60.2146 4.9401 59.85 5.71484V8.91406C60.2373 9.6888 60.8412 10.0762 61.6615 10.0762C62.2676 10.0762 62.7393 9.84147 63.0765 9.37207C63.4138 8.90267 63.5824 8.19629 63.5824 7.25293Z" fill="black" fill-opacity="0.9"/>
<path d="M68.7845 9.16016L70.5072 3.61621H71.8607L68.8871 12.1543C68.4268 13.3848 67.6954 14 66.6927 14L66.4535 13.9795L65.9818 13.8906V12.8652L66.3236 12.8926C66.752 12.8926 67.0847 12.806 67.3217 12.6328C67.5632 12.4596 67.7614 12.1429 67.9164 11.6826L68.1967 10.9307L65.558 3.61621H66.9388L68.7845 9.16016Z" fill="black" fill-opacity="0.9"/>
<path d="M76.2376 3.92608C76.4724 3.21922 76.8409 2.56646 77.3223 2.00497C77.8013 1.45281 78.3935 1.01522 79.0568 0.723327C79.7886 0.402805 80.5785 0.243981 81.3746 0.257275C82.1726 0.242638 82.9645 0.4015 83.6978 0.723327C84.3579 1.01671 84.9472 1.45416 85.4243 2.00497C85.9057 2.56646 86.2742 3.21922 86.509 3.92608C86.766 4.69237 86.8934 5.49782 86.8856 6.30783C86.8926 7.10185 86.7652 7.89114 86.509 8.6408C86.275 9.34073 85.9062 9.98567 85.4243 10.5375C84.9455 11.0809 84.3562 11.511 83.6978 11.7975C82.9631 12.114 82.1718 12.2699 81.3746 12.2554C80.5793 12.2686 79.7899 12.1127 79.0568 11.7975C78.3952 11.5125 77.8031 11.0823 77.3223 10.5375C76.8404 9.98567 76.4716 9.34073 76.2376 8.6408C75.9814 7.89114 75.854 7.10185 75.8611 6.30783C75.8532 5.49782 75.9806 4.69237 76.2376 3.92608ZM78.4919 7.71953C78.5949 8.15798 78.7746 8.5738 79.0223 8.94699C79.2629 9.31163 79.5858 9.61181 79.9638 9.82219C80.4008 10.0529 80.8883 10.1658 81.3799 10.1501C81.8699 10.1658 82.3557 10.0529 82.7908 9.82219C83.1696 9.6119 83.4934 9.31175 83.7349 8.94699C83.9794 8.57196 84.1588 8.15675 84.2653 7.71953C84.3741 7.25998 84.4284 6.78875 84.4271 6.31596C84.429 5.82436 84.3747 5.33422 84.2653 4.85548C84.1609 4.40742 83.9814 3.98116 83.7349 3.59551C83.4936 3.2284 83.1699 2.92555 82.7908 2.71218C82.3559 2.4805 81.8702 2.36668 81.3799 2.38161C80.888 2.36672 80.4005 2.48051 79.9638 2.71218C79.5854 2.92555 79.2625 3.22845 79.0223 3.59551C78.7725 3.97934 78.5928 4.40622 78.4919 4.85548C78.3803 5.33388 78.3251 5.82418 78.3274 6.31596C78.3264 6.78622 78.3816 7.25484 78.4919 7.71141V7.71953Z" fill="black" fill-opacity="0.9"/>
<path d="M93.7145 10.9277C93.4785 11.354 93.1177 11.6942 92.6829 11.9005C92.2295 12.1044 91.7381 12.2052 91.2428 12.1958C90.6919 12.2073 90.1462 12.0838 89.6516 11.8354C89.2015 11.6055 88.8108 11.2704 88.5112 10.8573C88.2051 10.4278 87.9761 9.94609 87.835 9.43472C87.6831 8.89293 87.6072 8.33187 87.6096 7.76831C87.6076 7.22257 87.6836 6.67945 87.835 6.15609C87.9769 5.66 88.206 5.19447 88.5112 4.78232C88.8143 4.38625 89.1968 4.06103 89.6331 3.82854C90.1208 3.57952 90.6606 3.45582 91.2057 3.46816C91.6771 3.46761 92.1427 3.57404 92.5689 3.77976C92.9928 3.97841 93.3506 4.29964 93.5978 4.70374H93.6297V0.530945H95.86V11.9872H93.7384V10.9277H93.7145ZM93.6297 6.82807C93.5738 6.53212 93.465 6.24921 93.3088 5.99352C93.1579 5.75487 92.9556 5.55467 92.7174 5.40824C92.4403 5.249 92.1254 5.17116 91.8077 5.18334C91.4851 5.17271 91.1656 5.25035 90.8822 5.40824C90.6369 5.5535 90.4294 5.75706 90.2775 6.00164C90.1194 6.26141 90.0071 6.54756 89.946 6.84704C89.8769 7.171 89.8431 7.50178 89.8452 7.83334C89.8443 8.15739 89.8817 8.48037 89.9566 8.79525C90.0214 9.10132 90.141 9.39252 90.3093 9.65419C90.4648 9.90126 90.6735 10.1088 90.9193 10.2611C91.1876 10.4242 91.4957 10.5059 91.8077 10.4969C92.1279 10.5083 92.4451 10.4306 92.7253 10.272C92.9676 10.1247 93.1699 9.91794 93.3141 9.67045C93.4659 9.4034 93.5726 9.1121 93.6297 8.8088C93.6941 8.48144 93.7261 8.14828 93.7251 7.81437C93.7262 7.48314 93.6942 7.15267 93.6297 6.82807Z" fill="black" fill-opacity="0.9"/>
<path d="M103.238 10.9277C103.003 11.3538 102.643 11.694 102.209 11.9005C101.726 12.1058 101.206 12.2061 100.683 12.1949C100.159 12.1837 99.6442 12.0613 99.1698 11.8354C98.7202 11.6057 98.3304 11.2705 98.032 10.8573C97.7239 10.429 97.4947 9.94695 97.3558 9.43472C97.2016 8.89336 97.1248 8.3321 97.1277 7.76831C97.1253 7.22234 97.2022 6.67903 97.3558 6.15609C97.4954 5.65911 97.7248 5.19318 98.032 4.78232C98.3332 4.38542 98.715 4.06 99.1512 3.82854C99.6388 3.57921 100.179 3.4555 100.724 3.46816C101.199 3.46599 101.668 3.57246 102.098 3.77976C102.522 3.97841 102.879 4.29964 103.127 4.70374H103.158V0.530945H105.389V11.9872H103.267V10.9277H103.238ZM103.143 6.82807C103.088 6.53176 102.979 6.24864 102.822 5.99352C102.672 5.75499 102.47 5.55477 102.233 5.40824C101.956 5.2494 101.641 5.17159 101.323 5.18334C101 5.17275 100.679 5.25038 100.395 5.40824C100.15 5.55426 99.943 5.75766 99.7903 6.00164C99.6352 6.26234 99.5248 6.54828 99.4641 6.84704C99.3963 7.17121 99.3625 7.50185 99.3634 7.83334C99.3651 8.15723 99.4024 8.47989 99.4747 8.79525C99.5398 9.10079 99.6584 9.39178 99.8248 9.65419C99.9827 9.9002 100.192 10.1075 100.437 10.2611C100.707 10.4245 101.016 10.5063 101.329 10.4969C101.648 10.5082 101.964 10.4305 102.243 10.272C102.486 10.1248 102.69 9.91805 102.835 9.67045C102.987 9.40379 103.093 9.11228 103.148 8.8088C103.212 8.48144 103.244 8.14828 103.243 7.81437C103.243 7.48296 103.209 7.15249 103.143 6.82807Z" fill="black" fill-opacity="0.9"/>
<path d="M108.889 0.530945V11.9872H106.659V0.530945H108.889Z" fill="black" fill-opacity="0.9"/>
<path d="M112.974 9.99832C113.371 10.353 113.89 10.5322 114.416 10.4969C114.83 10.5092 115.236 10.3878 115.578 10.1501C115.852 9.98436 116.062 9.72686 116.172 9.42117H118.134C117.825 10.4165 117.344 11.1273 116.692 11.5536C115.984 11.9989 115.165 12.2222 114.334 12.1958C113.744 12.2051 113.158 12.0993 112.608 11.8842C112.113 11.6901 111.667 11.3855 111.303 10.9927C110.939 10.5952 110.658 10.1259 110.478 9.61355C110.281 9.04747 110.183 8.45036 110.189 7.8496C110.185 7.25708 110.285 6.66867 110.486 6.11274C110.675 5.59764 110.964 5.12673 111.335 4.72813C111.71 4.3371 112.157 4.02583 112.65 3.81228C113.184 3.58288 113.758 3.4685 114.337 3.47629C114.962 3.46005 115.582 3.60052 116.143 3.88544C116.643 4.14673 117.077 4.52336 117.41 4.98554C117.746 5.45725 117.988 5.991 118.124 6.55711C118.27 7.16005 118.323 7.7827 118.28 8.40236H112.422C112.459 9.13124 112.634 9.66774 112.974 9.99832ZM115.49 5.63314C115.331 5.47384 115.14 5.35126 114.931 5.27367C114.721 5.19608 114.498 5.16528 114.276 5.18334C113.969 5.17248 113.665 5.23658 113.387 5.37031C113.169 5.47807 112.978 5.63348 112.825 5.82552C112.688 5.9952 112.586 6.19155 112.525 6.40266C112.472 6.57901 112.437 6.76069 112.422 6.94459H116.05C115.986 6.46298 115.792 6.00901 115.49 5.63314Z" fill="black" fill-opacity="0.9"/>
</svg>
