<svg width="160" height="40" viewBox="0 0 160 40" fill="none" xmlns="http://www.w3.org/2000/svg">
<path d="M116.441 11.2093C117.84 11.2093 119.139 11.4756 120.337 12.0083C121.536 12.541 122.587 13.2715 123.492 14.1997V12.2694C123.492 11.8053 123.723 11.5732 124.186 11.5732H125.81C126.304 11.5732 126.551 11.8053 126.551 12.2694V30.9874C126.551 31.1983 126.483 31.3671 126.346 31.4937C126.21 31.6203 126.047 31.6836 125.857 31.6836H124.217C123.996 31.6836 123.82 31.615 123.689 31.4779C123.557 31.3407 123.492 31.1772 123.492 30.9874V29.0096C122.587 29.9378 121.536 30.6683 120.337 31.201C119.139 31.7337 117.84 32 116.441 32C115.506 32 114.599 31.8761 113.721 31.6282C112.843 31.3803 112.02 31.0269 111.253 30.5681C110.485 30.1092 109.786 29.5633 109.155 28.9304C108.524 28.2975 107.98 27.5935 107.522 26.8181C107.065 26.0428 106.713 25.2148 106.466 24.334C106.219 23.4532 106.095 22.5382 106.095 21.5888C106.095 20.6395 106.219 19.7244 106.466 18.8436C106.713 17.9628 107.065 17.1375 107.522 16.3674C107.98 15.5974 108.524 14.8959 109.155 14.263C109.786 13.6301 110.485 13.0869 111.253 12.6333C112.02 12.1797 112.84 11.829 113.713 11.5811C114.586 11.3332 115.495 11.2093 116.441 11.2093ZM136.619 11.2093C137.419 11.2093 138.107 11.2834 138.683 11.4315C139.26 11.5796 139.771 11.7992 140.218 12.0901C140.665 12.3811 141.075 12.7408 141.449 13.1693C141.823 13.5979 142.212 14.0925 142.617 14.6533C142.742 14.8649 142.81 15.0474 142.82 15.2008C142.83 15.3542 142.737 15.505 142.539 15.6531L141.324 16.5895C141.085 16.727 140.904 16.7641 140.779 16.7006C140.654 16.6371 140.519 16.5154 140.374 16.3356C140.135 16.0499 139.901 15.7748 139.673 15.5103C139.444 15.2458 139.185 15.0104 138.894 14.804C138.603 14.5977 138.273 14.4337 137.904 14.312C137.536 14.1904 137.097 14.1295 136.588 14.1295C136.131 14.1295 135.689 14.1824 135.264 14.2882C134.838 14.394 134.456 14.5633 134.118 14.7961C133.781 15.0289 133.511 15.3225 133.308 15.6769C133.106 16.0314 133.004 16.4519 133.004 16.9386C133.004 17.309 133.129 17.6502 133.378 17.9623C133.628 18.2744 133.944 18.5575 134.329 18.8114C134.713 19.0653 135.134 19.2822 135.591 19.4621C136.048 19.642 136.489 19.7848 136.915 19.8906C137.902 20.1234 138.803 20.4196 139.618 20.7794C140.434 21.1391 141.132 21.5676 141.714 22.0649C142.295 22.5622 142.747 23.1415 143.069 23.8028C143.391 24.464 143.552 25.2126 143.552 26.0485C143.552 26.969 143.373 27.7969 143.015 28.5322C142.656 29.2676 142.158 29.8918 141.519 30.405C140.88 30.9181 140.119 31.3123 139.236 31.5874C138.354 31.8625 137.393 32 136.354 32C135.7 32 135.027 31.9154 134.337 31.7461C133.646 31.5768 132.994 31.3176 132.381 30.9684C131.768 30.6192 131.213 30.1802 130.714 29.6511C130.216 29.1221 129.837 28.4979 129.577 27.7784C129.525 27.6197 129.489 27.4901 129.468 27.3895C129.447 27.289 129.45 27.2044 129.476 27.1356C129.502 27.0668 129.543 27.006 129.6 26.9531C129.657 26.9002 129.738 26.8473 129.842 26.7944L131.322 26.0961C131.581 25.9903 131.784 26.0035 131.929 26.1358C132.075 26.268 132.189 26.4294 132.272 26.6198C132.428 27.0325 132.675 27.3948 133.012 27.707C133.35 28.0191 133.716 28.2757 134.111 28.4767C134.505 28.6777 134.905 28.8285 135.31 28.929C135.715 29.0295 136.063 29.0798 136.354 29.0798C136.749 29.0798 137.185 29.0216 137.663 28.9052C138.141 28.7888 138.59 28.6089 139.011 28.3656C139.431 28.1222 139.784 27.8075 140.07 27.4213C140.356 27.0351 140.498 26.5775 140.498 26.0485C140.498 25.4771 140.363 25.0169 140.093 24.6677C139.823 24.3186 139.473 24.0302 139.042 23.8028C138.611 23.5753 138.128 23.3928 137.593 23.2552C137.058 23.1177 136.526 22.9748 135.996 22.8267C135.061 22.5728 134.227 22.2633 133.495 21.8983C132.763 21.5332 132.14 21.11 131.626 20.6286C131.111 20.1472 130.719 19.597 130.449 18.978C130.179 18.3591 130.044 17.6634 130.044 16.891C130.044 16.0446 130.205 15.2722 130.527 14.5739C130.849 13.8756 131.298 13.2778 131.875 12.7805C132.451 12.2832 133.142 11.897 133.947 11.6219C134.752 11.3468 135.643 11.2093 136.619 11.2093ZM153.067 11.2093C153.867 11.2093 154.555 11.2834 155.131 11.4315C155.708 11.5796 156.219 11.7992 156.666 12.0901C157.113 12.3811 157.523 12.7408 157.897 13.1693C158.271 13.5979 158.66 14.0925 159.065 14.6533C159.19 14.8649 159.257 15.0474 159.268 15.2008C159.278 15.3542 159.185 15.505 158.987 15.6531L157.772 16.5895C157.533 16.727 157.352 16.7641 157.227 16.7006C157.102 16.6371 156.967 16.5154 156.822 16.3356C156.583 16.0499 156.349 15.7748 156.121 15.5103C155.892 15.2458 155.633 15.0104 155.342 14.804C155.051 14.5977 154.721 14.4337 154.352 14.312C153.984 14.1904 153.545 14.1295 153.036 14.1295C152.579 14.1295 152.137 14.1824 151.712 14.2882C151.286 14.394 150.904 14.5633 150.566 14.7961C150.229 15.0289 149.959 15.3225 149.756 15.6769C149.554 16.0314 149.452 16.4519 149.452 16.9386C149.452 17.309 149.577 17.6502 149.826 17.9623C150.076 18.2744 150.392 18.5575 150.777 18.8114C151.161 19.0653 151.582 19.2822 152.039 19.4621C152.496 19.642 152.937 19.7848 153.363 19.8906C154.35 20.1234 155.251 20.4196 156.066 20.7794C156.882 21.1391 157.58 21.5676 158.162 22.0649C158.743 22.5622 159.195 23.1415 159.517 23.8028C159.839 24.464 160 25.2126 160 26.0485C160 26.969 159.821 27.7969 159.463 28.5322C159.104 29.2676 158.606 29.8918 157.967 30.405C157.328 30.9181 156.567 31.3123 155.684 31.5874C154.802 31.8625 153.841 32 152.802 32C152.148 32 151.475 31.9154 150.785 31.7461C150.094 31.5768 149.442 31.3176 148.829 30.9684C148.216 30.6192 147.661 30.1802 147.162 29.6511C146.664 29.1221 146.284 28.4979 146.025 27.7784C145.973 27.6197 145.937 27.4901 145.916 27.3895C145.895 27.289 145.898 27.2044 145.924 27.1356C145.949 27.0668 145.991 27.006 146.048 26.9531C146.105 26.9002 146.186 26.8473 146.29 26.7944L147.77 26.0961C148.029 25.9903 148.232 26.0035 148.377 26.1358C148.523 26.268 148.637 26.4294 148.72 26.6198C148.876 27.0325 149.123 27.3948 149.46 27.707C149.798 28.0191 150.164 28.2757 150.559 28.4767C150.953 28.6777 151.353 28.8285 151.758 28.929C152.163 29.0295 152.511 29.0798 152.802 29.0798C153.197 29.0798 153.633 29.0216 154.111 28.9052C154.589 28.7888 155.038 28.6089 155.459 28.3656C155.879 28.1222 156.232 27.8075 156.518 27.4213C156.804 27.0351 156.946 26.5775 156.946 26.0485C156.946 25.4771 156.811 25.0169 156.541 24.6677C156.271 24.3186 155.921 24.0302 155.49 23.8028C155.059 23.5753 154.576 23.3928 154.041 23.2552C153.506 23.1177 152.974 22.9748 152.444 22.8267C151.509 22.5728 150.675 22.2633 149.943 21.8983C149.211 21.5332 148.588 21.11 148.074 20.6286C147.559 20.1472 147.167 19.597 146.897 18.978C146.627 18.3591 146.492 17.6634 146.492 16.891C146.492 16.0446 146.653 15.2722 146.975 14.5739C147.297 13.8756 147.746 13.2778 148.323 12.7805C148.899 12.2832 149.59 11.897 150.395 11.6219C151.2 11.3468 152.091 11.2093 153.067 11.2093ZM97.3312 8C98.366 8 99.325 8.19585 100.208 8.58755C101.091 8.97925 101.857 9.51122 102.505 10.1835C103.153 10.8557 103.66 11.6391 104.026 12.5337C104.392 13.4282 104.575 14.3731 104.575 15.3682C104.575 16.3422 104.394 17.2685 104.034 18.1471C103.673 19.0258 103.171 19.8013 102.529 20.4735C101.886 21.1458 101.128 21.6804 100.255 22.0774C99.3825 22.4744 98.4339 22.6729 97.4096 22.6729H91.8438V30.8827C91.8438 31.3485 91.6138 31.5814 91.1539 31.5814H89.5077C89.0478 31.5814 88.8178 31.3485 88.8178 30.8827V8.76223C88.8178 8.25407 89.0582 8 89.539 8H97.3312ZM116.43 14C115.44 14 114.511 14.2024 113.642 14.6073C112.773 15.0121 112.015 15.5554 111.367 16.2373C110.719 16.9191 110.209 17.7155 109.835 18.6264C109.461 19.5373 109.274 20.4935 109.274 21.4949C109.274 22.4857 109.461 23.4392 109.835 24.3555C110.209 25.2717 110.719 26.0787 111.367 26.7765C112.015 27.4744 112.773 28.031 113.642 28.4465C114.511 28.862 115.44 29.0698 116.43 29.0698C117.42 29.0698 118.354 28.862 119.234 28.4465C120.113 28.031 120.879 27.4744 121.532 26.7765C122.185 26.0787 122.701 25.2717 123.08 24.3555C123.459 23.4392 123.649 22.4857 123.649 21.4949C123.649 20.4935 123.459 19.5373 123.08 18.6264C122.701 17.7155 122.185 16.9191 121.532 16.2373C120.879 15.5554 120.113 15.0121 119.234 14.6073C118.354 14.2024 117.42 14 116.43 14ZM97.2692 10.9302H91.7204V19.5814H97.2692C97.8399 19.5814 98.3843 19.4643 98.9021 19.2302C99.42 18.9961 99.8745 18.6796 100.266 18.2805C100.657 17.8815 100.966 17.4213 101.193 16.8999C101.42 16.3784 101.534 15.8304 101.534 15.2558C101.534 14.6918 101.423 14.1491 101.201 13.6277C100.979 13.1063 100.675 12.6461 100.289 12.2471C99.9036 11.848 99.4517 11.5288 98.9339 11.2894C98.416 11.0499 97.8611 10.9302 97.2692 10.9302Z" fill="#16688A"/>
<path d="M5.65549 20.5474C5.65549 21.457 5.75872 22.3414 5.9652 23.2005C6.17168 24.0596 6.50106 24.8327 6.95334 25.52C7.40563 26.2073 7.99556 26.7581 8.72315 27.1725C9.45074 27.5869 10.3356 27.794 11.3779 27.794C12.4201 27.794 13.305 27.5869 14.0326 27.1725C14.7602 26.7581 15.3501 26.2073 15.8024 25.52C16.2547 24.8327 16.584 24.0596 16.7905 23.2005C16.997 22.3414 17.1002 21.457 17.1002 20.5474C17.1002 19.5973 16.997 18.6776 16.7905 17.7882C16.584 16.8988 16.2547 16.1054 15.8024 15.408C15.3501 14.7107 14.7602 14.1548 14.0326 13.7404C13.305 13.326 12.4201 13.1188 11.3779 13.1188C10.3356 13.1188 9.45074 13.326 8.72315 13.7404C7.99556 14.1548 7.40563 14.7107 6.95334 15.408C6.50106 16.1054 6.17168 16.8988 5.9652 17.7882C5.75872 18.6776 5.65549 19.5973 5.65549 20.5474ZM1 20.465C1 18.8444 1.23874 17.3404 1.71623 15.9528C2.19372 14.5652 2.8801 13.3548 3.77539 12.3217C4.67068 11.2886 5.76988 10.4784 7.07302 9.89093C8.37617 9.30349 9.84343 9.00977 11.4748 9.00977C13.1262 9.00977 14.5984 9.30349 15.8916 9.89093C17.1848 10.4784 18.279 11.2886 19.1743 12.3217C20.0696 13.3548 20.756 14.5652 21.2335 15.9528C21.7109 17.3404 21.9497 18.8444 21.9497 20.465C21.9497 22.045 21.7109 23.5186 21.2335 24.886C20.756 26.2533 20.0696 27.4434 19.1743 28.4562C18.279 29.4691 17.1848 30.2641 15.8916 30.8415C14.5984 31.4188 13.1262 31.7074 11.4748 31.7074C9.84343 31.7074 8.37617 31.4188 7.07302 30.8415C5.76988 30.2641 4.67068 29.4691 3.77539 28.4562C2.8801 27.4434 2.19372 26.2533 1.71623 24.886C1.23874 23.5186 1 22.045 1 20.465ZM35.5282 23.3463C35.5282 22.7031 35.4685 22.0851 35.3491 21.4921C35.2298 20.8992 35.0258 20.3766 34.7374 19.9244C34.4489 19.4722 34.0758 19.1054 33.6182 18.824C33.1607 18.5426 32.5837 18.4019 31.8874 18.4019C31.191 18.4019 30.6041 18.5426 30.1266 18.824C29.6491 19.1054 29.2662 19.4772 28.9777 19.9395C28.6892 20.4018 28.4803 20.9294 28.351 21.5223C28.2217 22.1152 28.157 22.7332 28.157 23.3764C28.157 23.9794 28.2266 24.5823 28.3659 25.1853C28.5052 25.7883 28.729 26.3259 29.0374 26.7983C29.3457 27.2706 29.7337 27.6525 30.2012 27.9439C30.6688 28.2353 31.2308 28.3811 31.8874 28.3811C32.5837 28.3811 33.1656 28.2404 33.6332 27.959C34.1007 27.6776 34.4737 27.3007 34.7523 26.8284C35.0308 26.3561 35.2298 25.8184 35.3491 25.2155C35.4685 24.6125 35.5282 23.9894 35.5282 23.3463ZM35.5691 29.3048H35.5094C35.0115 30.1564 34.3593 30.7697 33.5528 31.1448C32.7463 31.5199 31.8352 31.7074 30.8196 31.7074C29.6646 31.7074 28.649 31.4793 27.7727 31.0231C26.8965 30.5669 26.1746 29.9485 25.6071 29.1679C25.0395 28.3873 24.6114 27.4901 24.3226 26.4763C24.0338 25.4625 23.8895 24.4082 23.8895 23.3133C23.8895 22.259 24.0338 21.2401 24.3226 20.2567C24.6114 19.2734 25.0395 18.4066 25.6071 17.6564C26.1746 16.9062 26.8865 16.303 27.7429 15.8468C28.5992 15.3906 29.5949 15.1625 30.73 15.1625C31.646 15.1625 32.5173 15.3601 33.3437 15.7555C34.1702 16.1509 34.8223 16.7338 35.3003 17.5043H35.36V9.59677H39.6017V31.3121H35.5691V29.3048ZM53.7622 23.3463C53.7622 22.7031 53.7025 22.0851 53.5831 21.4921C53.4637 20.8992 53.2598 20.3766 52.9713 19.9244C52.6829 19.4722 52.3098 19.1054 51.8522 18.824C51.3946 18.5426 50.8177 18.4019 50.1213 18.4019C49.425 18.4019 48.8381 18.5426 48.3606 18.824C47.8831 19.1054 47.5001 19.4772 47.2117 19.9395C46.9232 20.4018 46.7143 20.9294 46.585 21.5223C46.4556 22.1152 46.391 22.7332 46.391 23.3764C46.391 23.9794 46.4606 24.5823 46.5999 25.1853C46.7392 25.7883 46.963 26.3259 47.2714 26.7983C47.5797 27.2706 47.9677 27.6525 48.4352 27.9439C48.9028 28.2353 49.4648 28.3811 50.1213 28.3811C50.8177 28.3811 51.3996 28.2404 51.8671 27.959C52.3347 27.6776 52.7077 27.3007 52.9863 26.8284C53.2648 26.3561 53.4637 25.8184 53.5831 25.2155C53.7025 24.6125 53.7622 23.9894 53.7622 23.3463ZM53.8031 29.3048H53.7434C53.2455 30.1564 52.5933 30.7697 51.7868 31.1448C50.9803 31.5199 50.0692 31.7074 49.0536 31.7074C47.8986 31.7074 46.8829 31.4793 46.0067 31.0231C45.1305 30.5669 44.4086 29.9485 43.8411 29.1679C43.2735 28.3873 42.8454 27.4901 42.5566 26.4763C42.2678 25.4625 42.1235 24.4082 42.1235 23.3133C42.1235 22.259 42.2678 21.2401 42.5566 20.2567C42.8454 19.2734 43.2735 18.4066 43.8411 17.6564C44.4086 16.9062 45.1205 16.303 45.9768 15.8468C46.8332 15.3906 47.8289 15.1625 48.964 15.1625C49.88 15.1625 50.7513 15.3601 51.5777 15.7555C52.4041 16.1509 53.0563 16.7338 53.5343 17.5043H53.594V9.59677H57.8357V31.3121H53.8031V29.3048ZM61.1334 9.59677H65.4009V31.3161H61.1334V9.59677ZM78.9794 21.7283C78.7834 20.6397 78.4357 19.8131 77.936 19.2486C77.4364 18.6841 76.6771 18.4019 75.6582 18.4019C74.9921 18.4019 74.4385 18.5178 73.9977 18.7497C73.5568 18.9815 73.2041 19.2688 72.9396 19.6115C72.6751 19.9542 72.489 20.3171 72.3812 20.7001C72.2734 21.0832 72.2097 21.4259 72.1901 21.7283H78.9794ZM75.7646 15.0755C77.0717 15.0755 78.2103 15.3323 79.1807 15.846C80.151 16.3596 80.9481 17.0495 81.5719 17.9156C82.1957 18.7817 82.6462 19.7687 82.9235 20.8766C83.2007 21.9844 83.2997 23.1426 83.2205 24.3511H72.1407C72.2001 25.741 72.5466 26.7481 73.1803 27.3725C73.814 27.9969 74.725 28.3091 75.9132 28.3091C76.7647 28.3091 77.4974 28.0926 78.1113 27.6595C78.7252 27.2265 79.1015 26.7682 79.2401 26.2848H82.9532C82.3591 28.1581 81.4481 29.4975 80.2203 30.3032C78.9925 31.1089 77.5073 31.5118 75.7646 31.5118C74.5566 31.5118 73.4675 31.3154 72.4971 30.9226C71.5268 30.5298 70.7049 29.9709 70.0316 29.2457C69.3583 28.5206 68.8385 27.6545 68.4722 26.6474C68.1058 25.6402 67.9226 24.5324 67.9226 23.3239C67.9226 22.1556 68.1107 21.0679 68.487 20.0608C68.8633 19.0537 69.3979 18.1825 70.091 17.4473C70.7842 16.7121 71.6109 16.133 72.5714 15.71C73.5319 15.287 74.5963 15.0755 75.7646 15.0755Z" fill="#0A3040"/>
</svg>
